<?xml version="1.0" encoding="UTF-8" standalone="no"?>
<!-- Created with Inkscape (http://www.inkscape.org/) -->

<svg
   xmlns:dc="http://purl.org/dc/elements/1.1/"
   xmlns:cc="http://creativecommons.org/ns#"
   xmlns:rdf="http://www.w3.org/1999/02/22-rdf-syntax-ns#"
   xmlns:svg="http://www.w3.org/2000/svg"
   xmlns="http://www.w3.org/2000/svg"
   xmlns:sodipodi="http://sodipodi.sourceforge.net/DTD/sodipodi-0.dtd"
   xmlns:inkscape="http://www.inkscape.org/namespaces/inkscape"
   width="744.09448819"
   height="1052.3622047"
   id="svg2"
   version="1.1"
   inkscape:version="0.48.3.1 r9886"
   sodipodi:docname="me_drawing.svg">
  <defs
     id="defs4">
    <inkscape:path-effect
       effect="spiro"
       id="path-effect4088"
       is_visible="true" />
    <inkscape:path-effect
       effect="spiro"
       id="path-effect3288"
       is_visible="true" />
    <inkscape:path-effect
       effect="spiro"
       id="path-effect3284"
       is_visible="true" />
    <inkscape:path-effect
       effect="skeletal"
       id="path-effect3272"
       is_visible="true"
       pattern="M 0,5 C 0,2.24 2.24,0 5,0 7.76,0 10,2.24 10,5 10,7.76 7.76,10 5,10 2.24,10 0,7.76 0,5 z"
       copytype="single_stretched"
       prop_scale="1"
       scale_y_rel="false"
       spacing="0"
       normal_offset="0"
       tang_offset="0"
       prop_units="false"
       vertical_pattern="false"
       fuse_tolerance="0" />
    <inkscape:path-effect
       effect="spiro"
       id="path-effect3270"
       is_visible="true" />
    <inkscape:path-effect
       effect="spiro"
       id="path-effect3266"
       is_visible="true" />
    <inkscape:path-effect
       effect="spiro"
       id="path-effect3262"
       is_visible="true" />
    <inkscape:path-effect
       effect="spiro"
       id="path-effect3258"
       is_visible="true" />
    <inkscape:path-effect
       effect="spiro"
       id="path-effect3233"
       is_visible="true" />
    <inkscape:path-effect
       fuse_tolerance="0"
       vertical_pattern="false"
       prop_units="false"
       tang_offset="0"
       normal_offset="0"
       spacing="0"
       scale_y_rel="false"
       prop_scale="1"
       copytype="single_stretched"
       pattern="m 429.19684,431.44281 c 0,-2.76 2.24,-5 5,-5 2.76,0 5,2.24 5,5 0,2.76 -2.24,5 -5,5 -2.76,0 -5,-2.24 -5,-5 z"
       is_visible="true"
       id="path-effect3210"
       effect="skeletal" />
    <inkscape:path-effect
       is_visible="true"
       id="path-effect3208"
       effect="spiro" />
    <inkscape:path-effect
       effect="skeletal"
       id="path-effect3182"
       is_visible="true"
       pattern="M 0,5 C 0,2.24 2.24,0 5,0 7.76,0 10,2.24 10,5 10,7.76 7.76,10 5,10 2.24,10 0,7.76 0,5 z"
       copytype="single_stretched"
       prop_scale="1"
       scale_y_rel="false"
       spacing="0"
       normal_offset="0"
       tang_offset="0"
       prop_units="false"
       vertical_pattern="false"
       fuse_tolerance="0" />
    <inkscape:path-effect
       effect="spiro"
       id="path-effect3180"
       is_visible="true" />
    <inkscape:path-effect
       fuse_tolerance="0"
       vertical_pattern="false"
       prop_units="false"
       tang_offset="0"
       normal_offset="0"
       spacing="0"
       scale_y_rel="false"
       prop_scale="1"
       copytype="single_stretched"
       pattern="m 433.69879,472.74904 c 0,-2.76 2.24,-5 5,-5 2.76,0 5,2.24 5,5 0,2.76 -2.24,5 -5,5 -2.76,0 -5,-2.24 -5,-5 z"
       is_visible="true"
       id="path-effect3172"
       effect="skeletal" />
    <inkscape:path-effect
       is_visible="true"
       id="path-effect3170"
       effect="spiro" />
    <inkscape:path-effect
       effect="skeletal"
       id="path-effect3132"
       is_visible="true"
       pattern="M 0,5 C 0,2.24 2.24,0 5,0 7.76,0 10,2.24 10,5 10,7.76 7.76,10 5,10 2.24,10 0,7.76 0,5 z"
       copytype="single_stretched"
       prop_scale="1"
       scale_y_rel="false"
       spacing="0"
       normal_offset="0"
       tang_offset="0"
       prop_units="false"
       vertical_pattern="false"
       fuse_tolerance="0" />
    <inkscape:path-effect
       effect="spiro"
       id="path-effect3130"
       is_visible="true" />
    <inkscape:path-effect
       effect="spiro"
       id="path-effect3126"
       is_visible="true" />
    <inkscape:path-effect
       effect="spiro"
       id="path-effect3122"
       is_visible="true" />
    <inkscape:path-effect
       effect="spiro"
       id="path-effect3118"
       is_visible="true" />
    <inkscape:path-effect
       effect="spiro"
       id="path-effect3114"
       is_visible="true" />
    <inkscape:path-effect
       effect="spiro"
       id="path-effect3110"
       is_visible="true" />
    <inkscape:path-effect
       effect="skeletal"
       id="path-effect3078"
       is_visible="true"
       pattern="M 0,5 C 0,2.24 2.24,0 5,0 7.76,0 10,2.24 10,5 10,7.76 7.76,10 5,10 2.24,10 0,7.76 0,5 z"
       copytype="single_stretched"
       prop_scale="1"
       scale_y_rel="false"
       spacing="0"
       normal_offset="0"
       tang_offset="0"
       prop_units="false"
       vertical_pattern="false"
       fuse_tolerance="0" />
    <inkscape:path-effect
       effect="spiro"
       id="path-effect3076"
       is_visible="true" />
    <inkscape:path-effect
       effect="skeletal"
       id="path-effect3072"
       is_visible="true"
       pattern="M 0,5 C 0,2.24 2.24,0 5,0 7.76,0 10,2.24 10,5 10,7.76 7.76,10 5,10 2.24,10 0,7.76 0,5 z"
       copytype="single_stretched"
       prop_scale="1"
       scale_y_rel="false"
       spacing="0"
       normal_offset="0"
       tang_offset="0"
       prop_units="false"
       vertical_pattern="false"
       fuse_tolerance="0" />
    <inkscape:path-effect
       effect="spiro"
       id="path-effect3070"
       is_visible="true" />
    <inkscape:path-effect
       effect="skeletal"
       id="path-effect3066"
       is_visible="true"
       pattern="M 0,5 C 0,2.24 2.24,0 5,0 7.76,0 10,2.24 10,5 10,7.76 7.76,10 5,10 2.24,10 0,7.76 0,5 z"
       copytype="single_stretched"
       prop_scale="1"
       scale_y_rel="false"
       spacing="0"
       normal_offset="0"
       tang_offset="0"
       prop_units="false"
       vertical_pattern="false"
       fuse_tolerance="0" />
    <inkscape:path-effect
       effect="spiro"
       id="path-effect3064"
       is_visible="true" />
    <inkscape:path-effect
       effect="skeletal"
       id="path-effect3060"
       is_visible="true"
       pattern="M 0,5 C 0,2.24 2.24,0 5,0 7.76,0 10,2.24 10,5 10,7.76 7.76,10 5,10 2.24,10 0,7.76 0,5 z"
       copytype="single_stretched"
       prop_scale="1"
       scale_y_rel="false"
       spacing="0"
       normal_offset="0"
       tang_offset="0"
       prop_units="false"
       vertical_pattern="false"
       fuse_tolerance="0" />
    <inkscape:path-effect
       effect="spiro"
       id="path-effect3058"
       is_visible="true" />
    <inkscape:path-effect
       effect="spiro"
       id="path-effect3130-4"
       is_visible="true" />
    <inkscape:path-effect
       effect="skeletal"
       id="path-effect3132-6"
       is_visible="true"
       pattern="m -243.43492,-462.09034 c 0,-2.76 2.24,-5 5,-5 2.76,0 5,2.24 5,5 0,2.76 -2.24,5 -5,5 -2.76,0 -5,-2.24 -5,-5 z"
       copytype="single_stretched"
       prop_scale="1"
       scale_y_rel="false"
       spacing="0"
       normal_offset="0"
       tang_offset="0"
       prop_units="false"
       vertical_pattern="false"
       fuse_tolerance="0" />
    <inkscape:path-effect
       effect="spiro"
       id="path-effect3180-9"
       is_visible="true" />
    <inkscape:path-effect
       effect="skeletal"
       id="path-effect3182-5"
       is_visible="true"
       pattern="m -228.27588,-421.52288 c 0,-2.76 2.24,-5 5,-5 2.76,0 5,2.24 5,5 0,2.76 -2.24,5 -5,5 -2.76,0 -5,-2.24 -5,-5 z"
       copytype="single_stretched"
       prop_scale="1"
       scale_y_rel="false"
       spacing="0"
       normal_offset="0"
       tang_offset="0"
       prop_units="false"
       vertical_pattern="false"
       fuse_tolerance="0" />
    <inkscape:path-effect
       effect="spiro"
       id="path-effect3233-6"
       is_visible="true" />
  </defs>
  <sodipodi:namedview
     id="base"
     pagecolor="#ffffff"
     bordercolor="#666666"
     borderopacity="1.0"
     inkscape:pageopacity="0.0"
     inkscape:pageshadow="2"
     inkscape:zoom="0.98994949"
     inkscape:cx="253.78169"
     inkscape:cy="532.44695"
     inkscape:document-units="px"
     inkscape:current-layer="layer1"
     showgrid="false"
     inkscape:window-width="1280"
     inkscape:window-height="750"
     inkscape:window-x="0"
     inkscape:window-y="0"
     inkscape:window-maximized="1" />
  <metadata
     id="metadata7">
    <rdf:RDF>
      <cc:Work
         rdf:about="">
        <dc:format>image/svg+xml</dc:format>
        <dc:type
           rdf:resource="http://purl.org/dc/dcmitype/StillImage" />
        <dc:title></dc:title>
      </cc:Work>
    </rdf:RDF>
  </metadata>
  <g
     inkscape:label="Layer 1"
     inkscape:groupmode="layer"
     id="layer1">
    <path
       style="fill:#000000;fill-rule:evenodd;stroke:none"
       d="m 203.04066,500.81889 c 0.27479,-6.1e-4 0.53959,3.5921 0.86797,10.48831 0.32838,6.8962 0.72305,17.09651 1.38592,30.30812 0.66287,13.21162 1.59642,29.43544 3.09171,48.36394 1.49528,18.9285 3.55455,40.56257 6.52219,64.56603 10.73806,21.1031 22.4898,44.28005 35.13563,69.29528 22.16016,14.73644 45.83614,30.49916 70.84882,47.16953 29.48142,8.75252 60.56457,18.01655 93.03804,27.72732 25.4012,-11.04259 51.68675,-22.46719 78.75147,-34.225 26.28606,-19.41177 53.42166,-39.4178 81.28123,-59.93053 4.57886,-31.94824 9.26991,-64.64657 14.06159,-97.97432 -1.24626,-31.82426 -2.50302,-64.21469 -3.76516,-97.06151 -0.11226,-2.92157 -0.22428,-5.83953 -0.33607,-8.75381 0.76367,-13.55454 1.52486,-27.0276 2.28274,-40.41222 -8.23416,-18.79842 -16.38585,-37.40949 -24.44898,-55.80252 8.20544,-2.23665 16.37085,-4.46267 24.49407,-6.67772 -13.55667,-16.49238 -26.91928,-32.77411 -40.05989,-48.82521 -1.4354,-13.63716 -2.8616,-27.13728 -4.27965,-40.49089 -20.15801,-1.15696 -39.9768,-2.31188 -59.42336,-3.46687 -16.59553,-10.02203 -32.87576,-19.85507 -48.8125,-29.48099 -23.799,3.66463 -46.91354,7.27325 -69.26874,10.8244 5.15304,-6.83336 10.24127,-13.58123 15.26229,-20.24042 -32.35688,9.31826 -63.01807,18.00094 -91.73079,25.96278 -18.35931,6.25913 -35.89766,12.24595 -52.54157,17.93517 -12.45636,26.92685 -23.81872,51.36492 -33.91734,72.95399 1.61198,22.62029 2.37128,42.38977 2.68971,58.93437 0.31844,16.54459 0.19933,29.86571 -0.0426,39.61705 -0.15863,6.28866 -0.35554,11.08494 -0.53822,14.31173 -0.18269,3.22679 -0.36193,4.88358 -0.54852,4.88399 -0.18659,4.1e-4 -0.37576,-1.65628 -0.55568,-4.88446 -0.17992,-3.22818 -0.3398,-8.02839 -0.53106,-14.30562 -0.29265,-9.78672 -0.68062,-23.18516 -1.46725,-39.87153 -0.78664,-16.68638 -1.97525,-36.66217 -3.96685,-59.56693 10.13758,-22.45443 21.7796,-48.0847 34.77304,-76.54859 17.18185,-6.43699 35.38524,-13.26326 54.53459,-20.45063 29.90986,-6.53622 62.0565,-13.38666 96.15759,-20.50424 -4.94917,6.63439 -9.96404,13.35732 -15.0423,20.16568 22.01011,-5.58288 44.73739,-11.41228 68.11201,-17.45986 16.37071,9.49481 33.10888,19.20327 50.1825,29.10786 20.20459,2.14926 40.81634,4.36356 61.7949,6.63464 2.57778,13.95119 5.19325,28.06917 7.84219,42.34163 12.07063,17.78504 24.3132,35.86817 36.71169,54.21035 -7.95697,2.475 -15.95535,4.96341 -23.99325,7.4644 9.25681,16.91301 18.62221,34.00984 28.07896,51.27365 -0.58028,14.04757 -1.16623,28.19098 -1.75788,42.42029 0.11078,2.92819 0.22161,5.86009 0.33248,8.79562 1.24646,33.00371 2.46342,65.54858 3.64751,97.5211 -5.52233,34.74478 -10.9468,68.80888 -16.24296,102.03587 -28.94047,21.74096 -57.11939,42.88355 -84.3838,63.3081 -28.54777,11.87749 -56.21609,23.38328 -82.87304,34.46537 -33.94398,-10.07319 -66.31506,-19.71042 -96.87055,-28.84123 -25.74992,-17.648 -50.01027,-34.29294 -72.59284,-49.80511 -12.93705,-26.15054 -24.83409,-50.27113 -35.57505,-72.12608 -2.6358,-24.37713 -4.31978,-46.31046 -5.40421,-65.47103 -1.08444,-19.16056 -1.57162,-35.54931 -1.76076,-48.87378 -0.18913,-13.32446 -0.0827,-23.58559 0.10904,-30.51303 0.19177,-6.92743 0.46619,-10.52183 0.74098,-10.52244 z"
       id="path3056"
       inkscape:path-effect="#path-effect3058;#path-effect3060"
       inkscape:original-d="m 203.04066,500.81889 9.09137,154.55334 35.35534,70.71068 71.72083,48.48732 94.95434,28.28427 80.81221,-34.34518 82.83251,-61.61931 15.15228,-100.0051 -4.04061,-106.06602 2.02031,-41.41625 -26.26397,-53.53809 24.24366,-7.07106 -38.38579,-51.51778 -6.06092,-41.41626 -60.60915,-5.05076 -49.49748,-29.29442 -68.69037,14.14213 15.15229,-20.20305 -93.94419,23.23351 -53.53808,19.1929 -34.34519,74.75129 4.04061,98.99494 z"
       inkscape:connector-curvature="0" />
    <path
       style="fill:#000000;fill-rule:evenodd;stroke:none"
       d="m 195.96959,500.81889 c -0.30974,0.40653 -2.55459,-0.68844 -6.26407,-3.06652 -3.70949,-2.37807 -8.88258,-6.03915 -15.1431,-10.77269 -4.94942,2.89411 -10.45382,6.08742 -16.37929,9.50614 -0.2161,7.07761 -0.44213,14.67786 -0.68096,22.7059 0,0 0,0 0,10e-6 5.50268,9.73787 11.41672,20.29109 17.62406,31.47045 3.64072,14.90235 7.43071,30.81778 11.29244,47.38522 1.12362,4.82053 2.22928,9.59283 3.31568,14.3078 3.27815,3.13536 6.5127,6.23008 9.71874,9.27938 1.43468,-2.98129 2.87159,-5.92474 4.32076,-8.83194 -3.35463,-32.15861 -5.89271,-59.99938 -7.28578,-79.92618 -1.39306,-19.9268 -1.64176,-31.93722 -0.51848,-32.05757 1.12328,-0.12035 3.43041,11.72362 6.34571,32.00829 2.91531,20.28467 6.43815,49.01244 10.0937,82.28212 -3.84407,4.371 -7.79842,8.84055 -11.84169,13.39144 -6.0526,-3.56402 -12.25567,-7.21047 -18.56552,-10.92368 -1.22306,-4.83078 -2.45704,-9.72902 -3.69847,-14.68401 -4.26657,-17.02955 -8.30487,-33.47102 -11.99799,-48.88189 -6.00319,-11.80516 -11.61268,-22.94331 -16.72112,-33.17931 10e-6,0 10e-6,0 10e-6,-10e-6 1.21557,-10.15212 2.34311,-19.47145 3.35963,-27.8017 8.43503,-4.13944 15.81189,-7.72575 22.00651,-10.69692 7.14113,5.47725 12.57465,9.89739 16.12134,13.04784 3.5467,3.15045 5.20763,5.0313 4.89789,5.43783 z"
       id="path3062"
       inkscape:path-effect="#path-effect3064;#path-effect3066"
       inkscape:original-d="m 195.96959,500.81889 -21.2132,-16.16244 -19.1929,10.10153 -2.0203,25.25381 17.17259,32.32488 15.15229,62.62946 14.14213,10.10153 8.08122,-11.11168 z"
       inkscape:connector-curvature="0" />
    <path
       style="fill:#000000;fill-rule:evenodd;stroke:none"
       d="m 591.94939,496.77828 c -0.26738,-0.36461 0.85693,-1.72914 3.36597,-3.97408 2.50905,-2.24493 6.40356,-5.37034 11.60722,-9.25081 7.00155,3.14744 16.13827,7.40524 27.08409,12.62179 0.3662,16.80225 0.75858,37.65882 1.05347,60.92097 -3.43413,11.9742 -7.12155,24.60413 -10.9839,37.61582 -0.54464,1.83481 -1.08794,3.66099 -1.62963,5.47776 -5.53078,4.8114 -10.97733,9.53761 -16.28677,14.15264 -5.23422,-4.34484 -10.34239,-8.60534 -15.28325,-12.75779 -0.82239,-30.31213 -1.16576,-56.59185 -0.97702,-75.20642 0.18875,-18.61457 0.90861,-29.56631 2.04982,-29.59988 1.14121,-0.0336 2.50183,10.80055 3.76857,28.83779 1.26675,18.03725 2.43861,43.27531 3.36515,72.42703 2.30834,3.09675 4.61631,6.25239 6.94011,9.46556 2.61947,-3.97461 5.26462,-8.01441 7.95689,-12.11131 0.48167,-1.67969 0.96663,-3.36676 1.45482,-5.06076 3.46198,-12.01315 6.86964,-23.62471 10.17531,-34.67818 1.05897,-21.05477 2.14103,-40.19982 3.07377,-56.25671 -8.14159,-4.32716 -15.39814,-8.266 -21.40323,-11.62189 -4.43554,3.18827 -8.11717,5.61871 -10.77447,7.16243 -2.6573,1.54372 -4.28954,2.20065 -4.55692,1.83604 z"
       id="path3068"
       inkscape:path-effect="#path-effect3070;#path-effect3072"
       inkscape:original-d="m 591.94939,496.77828 15.15229,-11.11168 24.24366,12.12184 -1.01015,58.58884 -12.12183,41.41626 -12.12183,13.13198 -11.11168,-11.11168 z"
       inkscape:connector-curvature="0" />
    <path
       style="fill:#000000;fill-rule:evenodd;stroke:none"
       d="m 309.10668,673.55498 c -0.10058,-0.86495 8.4457,-2.68207 23.63937,-5.15043 15.19366,-2.46835 37.03571,-5.58788 63.42986,-9.06224 4.49739,0.91852 9.12548,1.87306 13.8735,2.86129 5.19973,-1.3918 10.54599,-2.81546 16.02441,-4.26676 22.78888,4.5319 47.86607,9.86824 74.16205,15.50039 -0.86969,0.37334 -1.74086,0.74733 -2.61348,1.12192 -23.04172,9.89106 -45.12803,19.34556 -65.49881,27.77856 -1e-5,0 -1e-5,0 -2e-5,0 -15.2866,-0.12577 -29.64718,-0.29691 -42.7963,-0.50807 -24.51763,-7.78896 -44.71607,-14.45183 -58.70292,-19.36881 -13.98685,-4.91699 -21.76295,-8.0882 -21.51766,-8.90585 0.24529,-0.81765 8.47151,0.81183 22.68887,4.35611 14.21736,3.54428 34.42502,9.00324 58.71495,15.85655 12.42026,-0.21116 25.83761,-0.3823 40.03619,-0.50807 0,0 10e-6,0 10e-6,0 20.0891,-6.06009 41.87737,-12.32185 64.66343,-18.84672 0.86294,-0.2471 1.72453,-0.49381 2.58472,-0.74012 -25.26404,-2.24507 -49.30964,-4.41361 -71.29994,-6.72296 -5.57619,1.31235 -11.01482,2.58491 -16.30045,3.81445 -4.94156,-1.08811 -9.74927,-2.15553 -14.41077,-3.19963 -25.94365,2.61143 -47.53816,4.54267 -62.69661,5.60363 -15.15844,1.06097 -23.87982,1.25171 -23.9804,0.38676 z"
       id="path3074"
       inkscape:path-effect="#path-effect3076;#path-effect3078"
       inkscape:original-d="m 309.10668,673.55498 86.87312,-10.10153 14.14213,3.03046 16.16244,-4.04061 72.73099,11.11168 -67.68022,24.24366 -41.41626,0 z"
       inkscape:connector-curvature="0" />
    <path
       style="fill:none;stroke:#000000;stroke-width:1px;stroke-linecap:butt;stroke-linejoin:miter;stroke-opacity:1"
       d="m 369.71583,565.46866 c 0.68776,2.01979 0.2955,4.37335 -1.01015,6.06091 -0.23697,0.30629 -0.5021,0.59239 -0.70638,0.92139 -0.20429,0.32899 -0.34665,0.71404 -0.30377,1.09892 0.041,0.36835 0.24534,0.69787 0.33431,1.05767 0.0445,0.17989 0.0593,0.37126 0.009,0.54965 -0.0251,0.0892 -0.0664,0.17424 -0.12453,0.24641 -0.0581,0.0722 -0.13328,0.13118 -0.21891,0.16657 -0.0786,0.0325 -0.16454,0.0447 -0.24962,0.045 -0.0851,2.7e-4 -0.16976,-0.0111 -0.25384,-0.0241 -0.16815,-0.0261 -0.34088,-0.0591 -0.5067,-0.0208 -0.0992,0.0229 -0.19211,0.071 -0.27002,0.13658 -0.0779,0.0655 -0.14092,0.1482 -0.18633,0.23932 -0.0908,0.18225 -0.10975,0.39515 -0.0764,0.59602 0.0667,0.40174 0.32595,0.74066 0.57349,1.06404 0.12377,0.1617 0.24707,0.32466 0.34738,0.50186 0.10031,0.1772 0.17753,0.3701 0.20227,0.57222 0.0247,0.20211 -0.006,0.41436 -0.108,0.5904 -0.0512,0.088 -0.11984,0.16619 -0.20243,0.22572 -0.0826,0.0595 -0.17918,0.10015 -0.27998,0.11445 -0.17039,0.0242 -0.34114,-0.0263 -0.51041,-0.0573 -0.0846,-0.0155 -0.17082,-0.0262 -0.25666,-0.0203 -0.0858,0.006 -0.1718,0.0294 -0.24308,0.0776 -0.0768,0.052 -0.13351,0.1311 -0.16519,0.21829 -0.0317,0.0872 -0.0392,0.18209 -0.0293,0.27433 0.0197,0.18449 0.10605,0.35446 0.19453,0.51753 0.0899,0.16562 0.18532,0.33452 0.20907,0.52145 0.0119,0.0935 0.005,0.19039 -0.0293,0.27819 -0.0342,0.0878 -0.0968,0.16587 -0.17974,0.21052 -0.076,0.0409 -0.16504,0.0523 -0.25115,0.0469 -0.0861,-0.005 -0.17035,-0.0266 -0.25402,-0.0476 -0.0837,-0.0211 -0.16794,-0.0421 -0.25407,-0.0473 -0.0861,-0.005 -0.17517,0.007 -0.25091,0.048 -0.0841,0.0459 -0.14685,0.12644 -0.17969,0.2165 -0.0328,0.09 -0.0372,0.18898 -0.0218,0.2836 0.0307,0.18924 0.13564,0.35681 0.23553,0.52043 0.0999,0.16363 0.19932,0.33612 0.21672,0.52703 0.009,0.0955 -0.004,0.19407 -0.0464,0.28019 -0.0421,0.0861 -0.11459,0.15881 -0.20431,0.19255 -0.0828,0.0312 -0.17506,0.0281 -0.2617,0.0102 -0.0867,-0.0179 -0.16959,-0.0501 -0.25401,-0.0766 -0.0844,-0.0265 -0.17222,-0.0476 -0.26054,-0.0423 -0.0442,0.003 -0.0881,0.012 -0.1286,0.0299 -0.0405,0.0179 -0.0774,0.0444 -0.1053,0.0788 -0.028,0.0344 -0.0465,0.0761 -0.0562,0.11941 -0.01,0.0433 -0.0106,0.0883 -0.006,0.13242 0.01,0.0883 0.042,0.17218 0.0731,0.25532 0.0311,0.0831 0.0616,0.16803 0.0673,0.25661 0.003,0.0443 -6.3e-4,0.0892 -0.0131,0.13182 -0.0125,0.0426 -0.0343,0.0828 -0.0652,0.11457 -0.0309,0.0318 -0.0705,0.0546 -0.11264,0.0682 -0.0422,0.0136 -0.087,0.0182 -0.13128,0.0164 -0.0886,-0.004 -0.17397,-0.0326 -0.25723,-0.0631 -0.0833,-0.0304 -0.16684,-0.0629 -0.25478,-0.0742 -0.044,-0.006 -0.0888,-0.006 -0.13243,0.002 -0.0436,0.008 -0.0859,0.0246 -0.1218,0.0506 -0.036,0.0261 -0.065,0.0613 -0.0857,0.10066 -0.0207,0.0393 -0.0332,0.0828 -0.0389,0.12684 -0.0114,0.0882 0.004,0.17782 0.0279,0.26353 0.0237,0.0857 0.0556,0.16902 0.0779,0.25512 0.0223,0.0861 0.0348,0.17652 0.0189,0.26401 -0.0221,0.12126 -0.0976,0.22761 -0.19016,0.30904 -0.0925,0.0814 -0.20185,0.14098 -0.31039,0.19938 -0.10854,0.0584 -0.21826,0.11701 -0.31204,0.19699 -0.0938,0.08 -0.17167,0.18424 -0.19756,0.30474 -0.0185,0.0859 -0.01,0.17564 0.009,0.26148 0.0189,0.0858 0.0477,0.16916 0.0698,0.25421 0.0222,0.0851 0.0377,0.17316 0.0293,0.26065 -0.008,0.0875 -0.043,0.17493 -0.10827,0.23381 -0.0648,0.0585 -0.15437,0.084 -0.24167,0.0854 -0.0873,0.001 -0.17339,-0.0192 -0.25733,-0.0433 -0.0839,-0.024 -0.16724,-0.0517 -0.25355,-0.0649 -0.0863,-0.0132 -0.17713,-0.0111 -0.2576,0.0228 -0.0873,0.0368 -0.15705,0.10972 -0.19798,0.19516 -0.0409,0.0854 -0.0542,0.18256 -0.0469,0.27701 0.0147,0.18889 0.1079,0.36166 0.20258,0.52578 0.0947,0.16412 0.19476,0.33114 0.22573,0.51805 0.0155,0.0935 0.0128,0.19095 -0.0167,0.28096 -0.0295,0.09 -0.087,0.17211 -0.16672,0.22335 -0.0723,0.0465 -0.15961,0.066 -0.24561,0.0678 -0.086,0.002 -0.17144,-0.0133 -0.25554,-0.0314 -0.0841,-0.0181 -0.16774,-0.0392 -0.25309,-0.0498 -0.0854,-0.0107 -0.17331,-0.0105 -0.25591,0.0135 -0.11803,0.0343 -0.21799,0.11543 -0.29606,0.21036 -0.0781,0.0949 -0.13677,0.20394 -0.19653,0.31135 -0.0598,0.10741 -0.12183,0.21497 -0.20528,0.3052 -0.0835,0.0902 -0.19108,0.16287 -0.31229,0.18324 -0.0877,0.0147 -0.17794,0.002 -0.26399,-0.0209 -0.0861,-0.0225 -0.16944,-0.0543 -0.25523,-0.0777 -0.0858,-0.0235 -0.17552,-0.0386 -0.26367,-0.0268 -0.0441,0.006 -0.0874,0.0186 -0.12673,0.0394 -0.0393,0.0208 -0.0745,0.0499 -0.10053,0.0859 -0.0259,0.0359 -0.0425,0.0781 -0.0507,0.12156 -0.008,0.0435 -0.008,0.0883 -0.003,0.13224 0.0108,0.0879 0.0428,0.17151 0.0729,0.25478 0.0301,0.0833 0.0588,0.16853 0.0628,0.25697 0.002,0.0442 -0.002,0.089 -0.0155,0.13121 -0.0132,0.0422 -0.0355,0.082 -0.0666,0.11339 -0.0312,0.0314 -0.0707,0.0539 -0.1129,0.0674 -0.0422,0.0135 -0.0869,0.0181 -0.13108,0.0164 -0.0884,-0.003 -0.17383,-0.0318 -0.25714,-0.0617 -0.0833,-0.0299 -0.16686,-0.0619 -0.25465,-0.0732 -0.0439,-0.006 -0.0887,-0.006 -0.13224,0.002 -0.0436,0.008 -0.0859,0.0239 -0.12214,0.0493 -0.0365,0.0256 -0.0662,0.0604 -0.0877,0.0994 -0.0215,0.039 -0.035,0.0822 -0.0417,0.1263 -0.0133,0.0881 4.4e-4,0.17834 0.0232,0.26452 0.0228,0.0862 0.0545,0.16976 0.0781,0.25573 0.0236,0.086 0.039,0.17574 0.0281,0.26421 -0.0124,0.10084 -0.0593,0.196 -0.1259,0.2727 -0.0666,0.0767 -0.15244,0.13547 -0.24506,0.17724 -0.18524,0.0835 -0.39302,0.0994 -0.59604,0.10798 -0.20303,0.009 -0.40948,0.0115 -0.60339,0.0723 -0.097,0.0304 -0.19006,0.0753 -0.26937,0.13886 -0.0793,0.0635 -0.14446,0.14612 -0.18055,0.2411 -0.0302,0.0796 -0.0396,0.1659 -0.0374,0.251 0.002,0.0851 0.0156,0.16947 0.0297,0.25343 0.0281,0.16792 0.0583,0.34316 0.008,0.50572 -0.0333,0.10682 -0.1014,0.20248 -0.19151,0.2688 -0.0901,0.0663 -0.20168,0.10295 -0.31357,0.10295 -0.11188,0 -0.22346,-0.0366 -0.31356,-0.10295 -0.0901,-0.0663 -0.15826,-0.16198 -0.19151,-0.2688 0.13039,0.13327 0.20598,0.31863 0.20598,0.50507 0,0.18645 -0.0756,0.37181 -0.20598,0.50508 -0.14052,0.14362 -0.33533,0.22265 -0.53168,0.2653 -0.19635,0.0426 -0.39814,0.0526 -0.59721,0.0798 -0.19908,0.0272 -0.40018,0.0736 -0.57017,0.18073 -0.085,0.0536 -0.16119,0.12214 -0.21842,0.20471 -0.0572,0.0826 -0.095,0.17943 -0.10282,0.27959 -0.007,0.0884 0.009,0.17716 0.0324,0.26284 0.023,0.0857 0.0527,0.16951 0.0735,0.25575 0.0208,0.0862 0.0326,0.17607 0.019,0.26373 -0.0136,0.0877 -0.0548,0.1734 -0.12487,0.22784 -0.0689,0.0536 -0.15977,0.0726 -0.24698,0.0692 -0.0872,-0.003 -0.17214,-0.0277 -0.25565,-0.053 -0.0835,-0.0254 -0.16731,-0.0522 -0.25412,-0.0613 -0.0868,-0.009 -0.17819,9.2e-4 -0.25341,0.0452 -0.0789,0.0464 -0.13377,0.12768 -0.15935,0.21555 -0.0256,0.0879 -0.0237,0.18197 -0.007,0.27197 0.0331,0.18002 0.12277,0.3449 0.16651,0.52263 0.0629,0.25538 0.0268,0.53017 -0.0793,0.77084 -0.10607,0.24066 -0.27931,0.44828 -0.483,0.61465 -0.40739,0.33275 -0.92217,0.49873 -1.42466,0.65428 -0.50248,0.15555 -1.01831,0.31395 -1.4345,0.63563 -0.20809,0.16084 -0.38796,0.3622 -0.50364,0.59839 -0.11569,0.2362 -0.16456,0.50843 -0.11553,0.76682 0.0334,0.17587 0.11035,0.34149 0.14002,0.51803 0.0148,0.0883 0.0175,0.17964 -0.003,0.26668 -0.0209,0.087 -0.0666,0.16968 -0.13664,0.22544 -0.0677,0.0539 -0.15451,0.0801 -0.24089,0.086 -0.0864,0.006 -0.17295,-0.008 -0.25755,-0.0259 -0.0846,-0.0184 -0.16816,-0.0418 -0.25348,-0.0564 -0.0853,-0.0147 -0.17332,-0.0205 -0.25823,-0.004 -0.0983,0.0196 -0.18942,0.0696 -0.26364,0.13697 -0.0742,0.0674 -0.13197,0.15174 -0.1745,0.24252 -0.0851,0.18156 -0.10925,0.385 -0.12574,0.58482 -0.0165,0.19982 -0.0269,0.40255 -0.0874,0.59369 -0.0303,0.0956 -0.0732,0.18771 -0.13278,0.26833 -0.0596,0.0806 -0.13626,0.14952 -0.22611,0.19398 -0.16269,0.0805 -0.35621,0.0755 -0.53235,0.0317 -0.17614,-0.0439 -0.34081,-0.12377 -0.50983,-0.18999 -0.16902,-0.0662 -0.34828,-0.11966 -0.52934,-0.1066 -0.0905,0.007 -0.18045,0.0301 -0.25966,0.0744 -0.0792,0.0443 -0.14732,0.10997 -0.18913,0.19053 -0.0394,0.0759 -0.0546,0.16264 -0.0549,0.24817 -3.6e-4,0.0855 0.0135,0.17045 0.0295,0.25448 0.016,0.084 0.0341,0.16784 0.0423,0.25297 0.008,0.0851 0.006,0.17225 -0.0169,0.25453 -0.0274,0.0965 -0.0841,0.18355 -0.15648,0.25301 -0.0724,0.0695 -0.16015,0.12182 -0.25316,0.15944 -0.18603,0.0752 -0.38977,0.0918 -0.58993,0.10605 -0.20016,0.0142 -0.4037,0.0276 -0.59191,0.0972 -0.0941,0.0348 -0.18364,0.0837 -0.2591,0.14985 -0.0755,0.0661 -0.13655,0.14988 -0.16972,0.24457 -0.0563,0.16065 -0.0293,0.33707 -0.001,0.50497 0.028,0.1679 0.0559,0.34395 0.001,0.50519 -0.032,0.0947 -0.0916,0.17896 -0.16565,0.2461 -0.074,0.0671 -0.16228,0.11759 -0.25536,0.15405 -0.18614,0.0729 -0.38867,0.0902 -0.58792,0.1065 -0.19925,0.0163 -0.40176,0.0332 -0.58816,0.10547 -0.0932,0.0361 -0.18164,0.0862 -0.25605,0.15293 -0.0744,0.0668 -0.13446,0.15064 -0.16717,0.2451 -0.0557,0.1608 -0.0293,0.33702 -0.002,0.50493 0.0276,0.16792 0.0552,0.34367 0.002,0.50522 -0.0313,0.0945 -0.0894,0.1791 -0.16209,0.24716 -0.0727,0.0681 -0.15948,0.12001 -0.2514,0.15823 -0.18385,0.0764 -0.38513,0.0981 -0.58333,0.11707 -0.1982,0.019 -0.39935,0.0366 -0.58601,0.10588 -0.0933,0.0346 -0.18243,0.0823 -0.2589,0.14599 -0.0765,0.0637 -0.14009,0.14401 -0.17857,0.23582 -0.0657,0.15683 -0.0546,0.33442 -0.0317,0.50292 0.0229,0.1685 0.0564,0.33899 0.0317,0.50724 -0.024,0.16388 -0.10335,0.31723 -0.21347,0.44094 -0.11013,0.12372 -0.25005,0.21878 -0.4003,0.2885 -0.30048,0.13943 -0.63609,0.17818 -0.96433,0.22284 -0.32823,0.0447 -0.66415,0.1 -0.95034,0.2668 -0.1431,0.0834 -0.2716,0.19468 -0.36339,0.33255 -0.0918,0.13787 -0.14546,0.30318 -0.13863,0.46867 0.007,0.17697 0.0814,0.34373 0.116,0.51743 0.0173,0.0869 0.0247,0.17684 0.009,0.26393 -0.0161,0.0871 -0.0571,0.17143 -0.12461,0.22879 -0.0661,0.0562 -0.15352,0.0833 -0.24019,0.0885 -0.0867,0.005 -0.17332,-0.01 -0.25783,-0.0297 -0.0845,-0.0199 -0.16795,-0.0448 -0.25349,-0.0597 -0.0855,-0.0149 -0.17426,-0.0196 -0.25864,9.1e-4 -0.11935,0.029 -0.22228,0.10679 -0.3025,0.19979 -0.0802,0.093 -0.14031,0.20129 -0.20012,0.30856 -0.0598,0.10727 -0.12056,0.21528 -0.20184,0.30735 -0.0813,0.0921 -0.18572,0.16821 -0.3057,0.19446 -0.0854,0.0187 -0.17452,0.0114 -0.26019,-0.006 -0.0857,-0.0172 -0.16905,-0.0442 -0.25388,-0.0651 -0.0848,-0.021 -0.17229,-0.0361 -0.25937,-0.0288 -0.0871,0.007 -0.17442,0.0385 -0.23671,0.0998 -0.0624,0.0614 -0.0951,0.14841 -0.10339,0.23553 -0.008,0.0871 0.006,0.1749 0.0267,0.25993 0.0207,0.085 0.0478,0.16847 0.0659,0.25409 0.0181,0.0856 0.027,0.17461 0.0107,0.2606 -0.0189,0.10017 -0.0719,0.19243 -0.14329,0.26519 -0.0714,0.0727 -0.16068,0.12661 -0.25565,0.16368 -0.18994,0.0741 -0.39836,0.0817 -0.60218,0.0871 -0.20382,0.005 -0.41191,0.0103 -0.60364,0.0797 -0.0959,0.0347 -0.18665,0.0857 -0.26073,0.1557 -0.0741,0.07 -0.13091,0.15975 -0.15481,0.25885 -0.0203,0.084 -0.0166,0.17228 -0.003,0.25768 0.0135,0.0854 0.0367,0.16892 0.0555,0.25331 0.0188,0.0844 0.0333,0.17062 0.0289,0.25697 -0.004,0.0864 -0.0288,0.1735 -0.0813,0.24219 -0.0546,0.0714 -0.13685,0.11883 -0.22397,0.14093 -0.0871,0.0221 -0.17899,0.0202 -0.26767,0.006 -0.17736,-0.0293 -0.34292,-0.10808 -0.51852,-0.14653 -0.2509,-0.0549 -0.51981,-0.0239 -0.75155,0.0869 -0.23174,0.11074 -0.42486,0.30044 -0.53972,0.53017 -0.11487,0.22972 -0.15075,0.49804 -0.1003,0.74988 0.0505,0.25183 0.18693,0.48562 0.38142,0.65337 -0.15301,0.46995 -0.5402,0.85714 -1.01015,1.01015 -0.39175,0.12755 -0.81823,0.0975 -1.21831,0.19587 -0.20003,0.0492 -0.39568,0.13276 -0.54814,0.27128 -0.0762,0.0693 -0.14089,0.15184 -0.18585,0.2445 -0.045,0.0927 -0.0699,0.19552 -0.068,0.2985 0.003,0.17887 0.0855,0.34578 0.12485,0.5203 0.0197,0.0873 0.0286,0.17839 0.0113,0.26615 -0.0173,0.0878 -0.063,0.17218 -0.13615,0.22371 -0.0714,0.0503 -0.16285,0.0656 -0.24999,0.0593 -0.0871,-0.006 -0.17148,-0.0322 -0.2549,-0.0582 -0.0834,-0.0259 -0.16769,-0.0521 -0.25479,-0.0588 -0.0871,-0.007 -0.1786,0.008 -0.25047,0.0576 -0.0737,0.0509 -0.12047,0.13503 -0.13865,0.22281 -0.0182,0.0878 -0.01,0.1792 0.009,0.26672 0.0387,0.17503 0.1217,0.34151 0.12926,0.52062 0.005,0.12691 -0.0284,0.25402 -0.088,0.36616 -0.0596,0.11214 -0.14457,0.20974 -0.24163,0.29167 -0.19413,0.16387 -0.43268,0.26416 -0.66765,0.36074 -0.23496,0.0966 -0.47423,0.19409 -0.67182,0.35376 -0.0988,0.0798 -0.18621,0.17502 -0.24944,0.28519 -0.0632,0.11017 -0.10165,0.23576 -0.10173,0.36278 -1.2e-4,0.17642 0.0719,0.34392 0.10739,0.51674 0.0177,0.0864 0.0263,0.17585 0.0119,0.26287 -0.0144,0.087 -0.0534,0.17186 -0.11925,0.23055 -0.0649,0.0579 -0.15194,0.0869 -0.23866,0.0936 -0.0867,0.007 -0.17379,-0.007 -0.25854,-0.0269 -0.0847,-0.0196 -0.16823,-0.0448 -0.2537,-0.0609 -0.0855,-0.0161 -0.174,-0.023 -0.25926,-0.006 -0.11861,0.024 -0.224,0.0933 -0.31152,0.17685 -0.0875,0.0836 -0.15986,0.1815 -0.23107,0.27934 -0.14241,0.19568 -0.29643,0.38283 -0.46756,0.55396 l -1.01015,1.01015 -1.01015,1.01015 c -0.17085,0.17085 -0.35691,0.32552 -0.55115,0.46923 -0.0971,0.0719 -0.19429,0.14477 -0.27785,0.23202 -0.0836,0.0873 -0.15364,0.19128 -0.18116,0.30891 -0.0196,0.0838 -0.0169,0.17151 -0.005,0.25674 0.0121,0.0852 0.0335,0.16885 0.0509,0.25316 0.0174,0.0843 0.0311,0.17013 0.0275,0.25615 -0.004,0.086 -0.0253,0.17285 -0.0737,0.2441 -0.0534,0.0787 -0.13723,0.13442 -0.22829,0.16194 -0.0911,0.0275 -0.18896,0.0281 -0.28248,0.0106 -0.18704,-0.0348 -0.35305,-0.13781 -0.51733,-0.23378 -0.16429,-0.096 -0.33874,-0.18895 -0.52867,-0.20014 -0.095,-0.006 -0.19231,0.0104 -0.27663,0.0544 -0.0843,0.044 -0.15468,0.11743 -0.1869,0.20694 -0.03,0.0833 -0.026,0.17554 -0.008,0.26217 0.0185,0.0866 0.0509,0.16955 0.0773,0.25408 0.0264,0.0845 0.0472,0.17255 0.0412,0.26093 -0.003,0.0442 -0.0127,0.0881 -0.031,0.12846 -0.0183,0.0403 -0.0453,0.077 -0.08,0.10451 -0.0349,0.0276 -0.0769,0.0456 -0.12044,0.0547 -0.0436,0.009 -0.0887,0.009 -0.13281,0.004 -0.0883,-0.0109 -0.172,-0.0443 -0.25515,-0.076 -0.0831,-0.0317 -0.16838,-0.0622 -0.25724,-0.0669 -0.0444,-0.002 -0.0895,0.002 -0.13183,0.0155 -0.0424,0.0136 -0.082,0.0367 -0.11268,0.0689 -0.0308,0.0324 -0.0519,0.0733 -0.0633,0.11648 -0.0115,0.0432 -0.0136,0.0885 -0.009,0.13294 0.009,0.0889 0.0422,0.17319 0.0752,0.25618 0.033,0.083 0.0662,0.16753 0.0738,0.25651 0.004,0.0445 0.001,0.0898 -0.011,0.13278 -0.0122,0.043 -0.034,0.0835 -0.0655,0.11526 -0.0314,0.0317 -0.0718,0.0539 -0.11464,0.0664 -0.0428,0.0125 -0.0881,0.0156 -0.1326,0.012 -0.089,-0.007 -0.17367,-0.0397 -0.25668,-0.0725 -0.083,-0.0328 -0.16716,-0.0664 -0.25594,-0.0756 -0.0444,-0.005 -0.0897,-0.003 -0.13295,0.008 -0.0433,0.011 -0.0845,0.0314 -0.11735,0.0616 -0.0327,0.03 -0.0566,0.069 -0.0711,0.11096 -0.0145,0.0419 -0.0199,0.0867 -0.0187,0.13111 0.003,0.0887 0.031,0.1745 0.0616,0.25783 0.0306,0.0833 0.0638,0.16671 0.0763,0.25459 0.006,0.0439 0.007,0.0888 -4e-5,0.13264 -0.007,0.0438 -0.0229,0.0865 -0.0481,0.12303 -0.0253,0.0367 -0.0599,0.0668 -0.0989,0.0885 -0.0389,0.0218 -0.0822,0.0354 -0.12628,0.0422 -0.0882,0.0136 -0.17854,-2.8e-4 -0.26477,-0.0232 -0.0862,-0.023 -0.16982,-0.055 -0.25582,-0.0788 -0.086,-0.0239 -0.17585,-0.0395 -0.26443,-0.0287 -0.10095,0.0124 -0.19621,0.0593 -0.27284,0.12618 -0.0766,0.0669 -0.1352,0.15295 -0.17666,0.24582 -0.0829,0.18573 -0.0978,0.39381 -0.10572,0.59705 -0.008,0.20325 -0.0105,0.41 -0.0717,0.60397 -0.0306,0.097 -0.0761,0.19003 -0.14016,0.26897 -0.0641,0.0789 -0.1475,0.14342 -0.24303,0.17831 -0.08,0.0292 -0.16654,0.0372 -0.25165,0.0339 -0.0851,-0.003 -0.16936,-0.0178 -0.2533,-0.0324 -0.0839,-0.0145 -0.16811,-0.0292 -0.25321,-0.0331 -0.0851,-0.004 -0.17164,0.003 -0.25199,0.0316 -0.1154,0.0406 -0.21244,0.12275 -0.29018,0.21721 -0.0777,0.0945 -0.13817,0.20166 -0.20002,0.30722 -0.0618,0.10555 -0.12615,0.21094 -0.21014,0.29989 -0.084,0.0889 -0.18997,0.1613 -0.30982,0.18583 -0.0854,0.0175 -0.1742,0.0101 -0.25975,-0.007 -0.0856,-0.0168 -0.169,-0.0428 -0.25382,-0.063 -0.0848,-0.0202 -0.17212,-0.0346 -0.25901,-0.0274 -0.0869,0.007 -0.174,0.0374 -0.23757,0.0971 -0.064,0.0601 -0.0998,0.14598 -0.11122,0.23303 -0.0114,0.087 -4e-5,0.17564 0.0191,0.26132 0.0383,0.17136 0.10814,0.34096 0.0921,0.51581 -0.0112,0.12239 -0.0649,0.2384 -0.13942,0.3361 -0.0746,0.0977 -0.16941,0.17827 -0.26968,0.24934 -0.20054,0.14212 -0.42733,0.25082 -0.60105,0.42471 -0.17376,0.17393 -0.28225,0.40089 -0.42435,0.60152 -0.0711,0.10031 -0.15166,0.19518 -0.24944,0.26967 -0.0978,0.0745 -0.21392,0.12802 -0.33636,0.13896 -0.17504,0.0156 -0.34457,-0.0549 -0.51604,-0.0934 -0.0857,-0.0193 -0.17442,-0.0306 -0.26152,-0.019 -0.0871,0.0116 -0.17297,0.0479 -0.2326,0.11242 -0.0591,0.064 -0.0885,0.15139 -0.0948,0.2383 -0.006,0.0869 0.009,0.17399 0.0294,0.25866 0.0206,0.0847 0.0467,0.16807 0.0628,0.25369 0.0162,0.0856 0.0222,0.17461 0.003,0.2595 -0.0277,0.11972 -0.10508,0.22328 -0.19796,0.30375 -0.0929,0.0805 -0.20132,0.14049 -0.3088,0.20007 -0.10747,0.0596 -0.21577,0.11994 -0.30818,0.20096 -0.0924,0.081 -0.16889,0.18535 -0.19521,0.30538 -0.0187,0.0854 -0.0113,0.17463 0.006,0.26032 0.0174,0.0857 0.0445,0.16907 0.0657,0.25391 0.0211,0.0848 0.0363,0.17237 0.029,0.25949 -0.007,0.0871 -0.0389,0.17449 -0.10065,0.23643 -0.0617,0.062 -0.14903,0.0939 -0.23616,0.10145 -0.0871,0.008 -0.17473,-0.007 -0.25962,-0.0285 -0.0849,-0.0211 -0.16827,-0.0483 -0.25395,-0.0658 -0.0857,-0.0176 -0.17487,-0.0253 -0.26042,-0.007 -0.093,0.0198 -0.17854,0.0702 -0.24482,0.13842 -0.0663,0.0682 -0.1137,0.15374 -0.1417,0.24465 -0.056,0.18182 -0.0345,0.3798 0.02,0.56207 0.0545,0.18227 0.14061,0.35317 0.21596,0.52786 0.0753,0.17469 0.14091,0.3573 0.15056,0.5473 0.0136,0.26794 -0.091,0.53976 -0.28069,0.72946 -0.1897,0.18971 -0.46152,0.2943 -0.72946,0.2807"
       id="path3112"
       inkscape:path-effect="#path-effect3114"
       inkscape:original-d="m 369.71583,565.46866 c -2.32336,0.36453 -0.52338,4.60061 -1.01015,6.06091 -0.2381,0.71429 -0.77206,1.30602 -1.01015,2.02031 -0.21296,0.63887 0.47619,1.54411 0,2.0203 -0.2381,0.2381 -0.77206,-0.23809 -1.01016,0 -0.24307,0.24308 0.24308,3.79754 0,4.04061 -0.23809,0.2381 -0.77205,-0.23809 -1.01015,0 -0.23809,0.2381 0,0.67344 0,1.01015 0,0.33672 0.2381,0.77206 0,1.01016 -0.23809,0.23809 -0.77206,-0.2381 -1.01015,0 -0.47619,0.47619 0.47619,1.54411 0,2.0203 -0.2381,0.2381 -0.77206,-0.23809 -1.01015,0 -0.2381,0.2381 0.23809,0.77206 0,1.01015 -0.2381,0.2381 -0.77206,-0.23809 -1.01016,0 -0.23809,0.2381 0.15059,0.70899 0,1.01016 -0.21296,0.42591 -0.79719,0.58423 -1.01015,1.01015 -0.15058,0.30117 0.2381,0.77206 0,1.01015 -0.23809,0.2381 -0.77206,-0.23809 -1.01015,0 -0.47619,0.47619 0.47619,1.54412 0,2.02031 -0.2381,0.23809 -0.70898,-0.15059 -1.01015,0 -0.42592,0.21296 -0.58424,0.79719 -1.01016,1.01015 -0.30117,0.15058 -0.77205,-0.2381 -1.01015,0 -0.23809,0.23809 0.2381,0.77206 0,1.01015 -0.23809,0.2381 -0.77206,-0.23809 -1.01015,0 -0.2381,0.2381 0.15058,0.70899 0,1.01015 -2.10201,4.20402 0.0697,-1.07988 -2.02031,1.01016 -0.23809,0.23809 0.2381,0.77205 0,1.01015 -0.23809,0.23809 -0.67343,0 -1.01015,0 0,0.33672 0.15059,0.70898 0,1.01015 -2.10201,4.20402 0.0697,-1.07989 -2.0203,1.01015 -0.2381,0.2381 0.23809,0.77206 0,1.01016 -0.2381,0.23809 -0.77206,-0.2381 -1.01016,0 -0.23809,0.23809 0.15059,0.70898 0,1.01015 -0.49701,0.99402 -3.5436,3.04659 -4.04061,4.04061 -0.15058,0.30117 0.2381,0.77206 0,1.01015 -0.23809,0.2381 -0.70898,-0.15058 -1.01015,0 -4.20401,2.10201 1.07989,-0.0697 -1.01015,2.02031 -0.47619,0.47619 -1.54412,-0.47619 -2.02031,0 -0.23809,0.23809 0.15059,0.70898 0,1.01015 -2.102,4.20401 0.0697,-1.07989 -2.0203,1.01015 -0.2381,0.2381 0.15058,0.70899 0,1.01016 -2.10201,4.20401 0.0697,-1.07989 -2.02031,1.01015 -0.23809,0.23809 0.15059,0.70898 0,1.01015 -2.102,4.20401 0.0697,-1.07989 -2.0203,1.01015 -0.2381,0.2381 0.15058,0.70899 0,1.01016 -0.92986,1.8597 -2.10061,0.16059 -3.03046,2.0203 -0.15058,0.30117 0.2381,0.77206 0,1.01015 -0.2381,0.2381 -0.70898,-0.15058 -1.01015,0 -0.42592,0.21296 -0.58424,0.7972 -1.01016,1.01016 -0.30116,0.15058 -0.77205,-0.2381 -1.01015,0 -0.23809,0.23809 0.15059,0.70898 0,1.01015 -2.102,4.20401 0.0697,-1.07989 -2.0203,1.01015 -0.2381,0.2381 0.23809,0.77206 0,1.01015 -0.2381,0.2381 -0.77206,-0.23809 -1.01016,0 -2.09004,2.09004 3.19387,-0.0817 -1.01015,2.02031 -2.69374,0 0.33672,-0.33672 -1.01015,1.01015 -0.5324,0.5324 -1.48791,0.47776 -2.02031,1.01015 -0.23809,0.2381 0.2381,0.77206 0,1.01016 -0.23809,0.23809 -0.77205,-0.2381 -1.01015,0 -0.23809,0.23809 0.15059,0.70898 0,1.01015 -0.42592,0.85183 -1.59439,1.16847 -2.0203,2.0203 -0.15059,0.30117 0.23809,0.77206 0,1.01016 -0.2381,0.23809 -0.70899,-0.15059 -1.01016,0 -0.42591,0.21295 -0.67343,0.67343 -1.01015,1.01015 -0.33672,0.33672 -0.67343,0.67343 -1.01015,1.01015 -0.33672,0.33672 -0.67344,0.67344 -1.01015,1.01015 -0.33672,0.33672 -0.7972,0.58424 -1.01016,1.01016 -0.15058,0.30117 0.30117,0.85956 0,1.01015 -0.60233,0.30117 -1.41796,-0.30117 -2.0203,0 -0.30117,0.15058 0.23809,0.77206 0,1.01015 -0.2381,0.2381 -0.77206,-0.23809 -1.01015,0 -0.2381,0.2381 0.23809,0.77206 0,1.01015 -0.2381,0.2381 -0.77206,-0.23809 -1.01016,0 -0.23809,0.2381 0.2381,0.77206 0,1.01016 -0.23809,0.23809 -0.77205,-0.2381 -1.01015,0 -2.09004,2.09004 3.19386,-0.0817 -1.01015,2.0203 -0.30117,0.15059 -0.70898,-0.15058 -1.01015,0 -0.42592,0.21296 -0.58424,0.7972 -1.01016,1.01015 -0.30117,0.15059 -0.77205,-0.23809 -1.01015,0 -0.23809,0.2381 0.15059,0.70899 0,1.01016 -0.21296,0.42591 -0.67343,0.67343 -1.01015,1.01015 -0.33672,0.33672 -0.58424,0.79719 -1.01015,1.01015 -0.30117,0.15059 -0.77206,-0.23809 -1.01016,0 -0.23809,0.2381 0.15059,0.70898 0,1.01015 -0.21296,0.42592 -0.79719,0.58424 -1.01015,1.01016 -0.15058,0.30117 0.2381,0.77205 0,1.01015 -0.23809,0.23809 -0.77206,-0.2381 -1.01015,0 -0.47619,0.47619 0.30117,1.41797 0,2.0203 -0.21296,0.42592 -0.67344,0.67344 -1.01015,1.01016"
       inkscape:connector-curvature="0" />
    <path
       style="fill:none;stroke:#000000;stroke-width:1px;stroke-linecap:butt;stroke-linejoin:miter;stroke-opacity:1"
       d="m 434.36559,570.51942 c 1.23992,1.89409 2.25913,3.93252 3.03046,6.06091 0.61901,1.70808 1.08724,3.4919 2.02031,5.05077 0.62388,1.04231 1.44337,1.96144 2.0203,3.03045 0.54137,1.00313 0.85431,2.11018 1.25762,3.17634 0.4033,1.06617 0.92142,2.12666 1.77284,2.88458 0.56895,0.50647 1.27376,0.85888 2.02031,1.01015 -0.56715,1.31759 -0.56838,2.86785 -0.003,4.18634 0.56506,1.31848 1.68851,2.38674 3.03376,2.88473 0.35842,0.13268 0.73073,0.22646 1.08523,0.36928 0.3545,0.14281 0.69769,0.34135 0.93508,0.64087 0.23581,0.29752 0.34974,0.6704 0.4714,1.03001 0.12165,0.35962 0.26417,0.72814 0.53875,0.9903 0.27474,0.2623 0.64908,0.38735 1.01029,0.50484 0.36122,0.1175 0.73553,0.24275 1.01002,0.50531 0.19567,0.18717 0.32725,0.43353 0.41166,0.69082 0.0844,0.25729 0.12422,0.52685 0.15774,0.79555 0.0335,0.2687 0.0612,0.53888 0.12269,0.8026 0.0614,0.26372 0.15824,0.5229 0.31806,0.74149 0.2897,0.39624 0.75152,0.61971 1.16311,0.88717 0.20579,0.13373 0.40432,0.28326 0.56227,0.47111 0.15795,0.18785 0.27391,0.41749 0.29492,0.66202 0.0145,0.16913 -0.0162,0.33837 -0.0352,0.50707 -0.019,0.16869 -0.0253,0.34446 0.0352,0.50309 0.0696,0.18254 0.22254,0.3242 0.39549,0.415 0.17296,0.0908 0.36593,0.13587 0.55798,0.17162 0.19205,0.0358 0.38648,0.0633 0.57261,0.12257 0.18613,0.0593 0.36627,0.15336 0.49423,0.30096 0.12025,0.1387 0.18846,0.3215 0.18846,0.50507 0,0.18358 -0.0682,0.36638 -0.18846,0.50508 0.27568,-0.0545 0.576,0.0367 0.77472,0.23543 0.19872,0.19872 0.28998,0.49904 0.23543,0.77472 -0.0356,0.17973 -0.12769,0.3444 -0.16396,0.52399 -0.0181,0.0898 -0.0218,0.18406 0.003,0.27222 0.0249,0.0882 0.0806,0.16977 0.16086,0.21395 0.0775,0.0427 0.17109,0.0475 0.25837,0.033 0.0873,-0.0145 0.17037,-0.0469 0.25406,-0.0756 0.0837,-0.0287 0.17017,-0.0541 0.25864,-0.0536 0.0442,2.5e-4 0.0887,0.007 0.13004,0.0228 0.0414,0.0157 0.0796,0.0403 0.10904,0.0734 0.0295,0.0332 0.0496,0.0742 0.0606,0.11729 0.011,0.043 0.013,0.0881 0.009,0.13233 -0.008,0.0885 -0.0401,0.17277 -0.0716,0.25585 -0.0315,0.0831 -0.0631,0.16757 -0.0705,0.25611 -0.004,0.0443 -0.001,0.0893 0.0103,0.13221 0.0115,0.0429 0.0322,0.0837 0.0623,0.11636 0.03,0.0326 0.0688,0.0565 0.11046,0.0714 0.0417,0.0149 0.0863,0.0208 0.13056,0.0202 0.0885,-0.001 0.17455,-0.0281 0.25804,-0.0576 0.0835,-0.0295 0.16674,-0.062 0.25429,-0.0752 0.0875,-0.0132 0.18155,-0.005 0.25681,0.0412 0.0767,0.0475 0.12627,0.13145 0.14549,0.21959 0.0192,0.0881 0.0105,0.18034 -0.01,0.2682 -0.0409,0.17573 -0.12828,0.3421 -0.13561,0.52236 -0.004,0.10343 0.0188,0.20733 0.0623,0.30125 0.0435,0.0939 0.1072,0.17797 0.18288,0.24859 0.15136,0.14124 0.34751,0.22701 0.54843,0.27693 0.40183,0.0998 0.82979,0.0654 1.22668,0.18338 0.47926,0.14242 0.87159,0.4971 1.16294,0.90341 0.29135,0.40631 0.49547,0.86704 0.71681,1.31535 0.22133,0.44832 0.46687,0.8943 0.82255,1.24568 0.17784,0.17569 0.3825,0.326 0.61007,0.42947 0.22757,0.10347 0.47857,0.15918 0.72824,0.1467 0.17081,-0.009 0.33849,-0.0484 0.5086,-0.0661 0.1701,-0.0177 0.34919,-0.0115 0.50155,0.0661 0.10906,0.0556 0.1979,0.14479 0.27127,0.2428 0.0734,0.098 0.13277,0.20554 0.19642,0.31012 0.0637,0.10457 0.13255,0.20742 0.22138,0.29166 0.0888,0.0842 0.19975,0.14936 0.32109,0.16558 0.088,0.0118 0.17757,-0.002 0.26345,-0.0249 0.0859,-0.0225 0.16942,-0.0533 0.25535,-0.0756 0.0859,-0.0223 0.17561,-0.0361 0.26352,-0.0237 0.0879,0.0124 0.17439,0.0534 0.22783,0.12426 0.0529,0.0701 0.0688,0.16264 0.0616,0.25017 -0.007,0.0875 -0.0352,0.17181 -0.063,0.25512 -0.0278,0.0833 -0.0556,0.1677 -0.0623,0.25526 -0.007,0.0876 0.01,0.18003 0.0636,0.2496 0.0541,0.0702 0.14096,0.11011 0.22887,0.12149 0.0879,0.0114 0.17727,-0.003 0.26296,-0.0259 0.0857,-0.0227 0.16913,-0.0534 0.25505,-0.0752 0.0859,-0.0218 0.17576,-0.0345 0.26327,-0.0204 0.12104,0.0196 0.22948,0.0898 0.31468,0.17797 0.0852,0.0882 0.14969,0.19396 0.21091,0.30021 0.0612,0.10624 0.1203,0.21449 0.1968,0.31031 0.0765,0.0958 0.17255,0.17969 0.28776,0.22166 0.08,0.0291 0.16657,0.0371 0.25168,0.0337 0.0851,-0.003 0.16936,-0.0179 0.25329,-0.0324 0.0839,-0.0145 0.16812,-0.0292 0.25322,-0.0331 0.0851,-0.004 0.17164,0.003 0.25197,0.0318 0.11539,0.0407 0.21236,0.12294 0.29002,0.21748 0.0777,0.0946 0.13803,0.2018 0.19984,0.3074 0.0618,0.10559 0.12612,0.211 0.21019,0.2999 0.0841,0.0889 0.19017,0.16112 0.3101,0.18537 0.0855,0.0173 0.17437,0.01 0.25994,-0.007 0.0856,-0.0171 0.16901,-0.0434 0.25387,-0.0637 0.0849,-0.0203 0.17226,-0.0347 0.2592,-0.0273 0.087,0.007 0.17405,0.0382 0.23714,0.0985 0.0634,0.0606 0.0982,0.14681 0.1086,0.23386 0.0104,0.0871 -0.002,0.17538 -0.0214,0.26085 -0.0196,0.0855 -0.0465,0.16913 -0.066,0.2546 -0.0195,0.0855 -0.0317,0.1738 -0.0212,0.26085 0.0147,0.12213 0.0755,0.23816 0.16755,0.31977 0.0921,0.0816 0.21451,0.12809 0.33753,0.12809 0.12301,0 0.24547,-0.0465 0.33752,-0.12809 0.092,-0.0816 0.15283,-0.19764 0.16755,-0.31977 0.78151,-0.006 1.55614,0.38139 2.02031,1.01015 0.30151,0.40843 0.4719,0.89999 0.75907,1.31863 0.14358,0.20931 0.31845,0.40127 0.53435,0.53475 0.2159,0.13349 0.47593,0.20506 0.72688,0.16692 0.17722,-0.0269 0.34276,-0.10627 0.51907,-0.13864 0.0881,-0.0162 0.1797,-0.0203 0.26698,9e-5 0.0873,0.0204 0.1702,0.067 0.22411,0.13855 0.0521,0.0692 0.0742,0.15736 0.0759,0.2439 0.002,0.0865 -0.0159,0.17227 -0.0366,0.25631 -0.0207,0.084 -0.0448,0.16753 -0.0566,0.25328 -0.0118,0.0857 -0.0109,0.17488 0.0174,0.25667 0.0302,0.0873 0.0911,0.16261 0.16665,0.21581 0.0755,0.0532 0.16511,0.0849 0.25662,0.0975 0.18304,0.0252 0.36846,-0.0242 0.54028,-0.0922 0.17183,-0.0679 0.33639,-0.15475 0.51277,-0.20976 0.17638,-0.055 0.37101,-0.0763 0.54398,-0.0114 0.092,0.0345 0.17447,0.0925 0.24246,0.16343 0.068,0.071 0.1218,0.15481 0.16338,0.24386 0.0832,0.17811 0.11731,0.37466 0.14568,0.56917 0.0284,0.19452 0.0522,0.39139 0.11694,0.57699 0.0647,0.1856 0.17532,0.36216 0.34169,0.46685 0.14653,0.0922 0.32561,0.12186 0.49855,0.11373 0.17293,-0.008 0.34204,-0.0517 0.50929,-0.0964 0.16725,-0.0447 0.33529,-0.0911 0.50784,-0.10524 0.17256,-0.0141 0.35209,0.006 0.50463,0.0879 0.10672,0.0573 0.19626,0.14251 0.27301,0.23621 0.0767,0.0937 0.14169,0.19633 0.20902,0.29701 0.0673,0.10068 0.1377,0.20022 0.22355,0.28565 0.0859,0.0854 0.18849,0.15673 0.30457,0.19128 0.16288,0.0485 0.33742,0.0217 0.50539,-0.004 0.16798,-0.0258 0.34355,-0.0497 0.50476,0.004 0.1151,0.0384 0.21476,0.11447 0.2971,0.2036 0.0824,0.0891 0.14886,0.19146 0.21423,0.29368 0.0654,0.10223 0.13037,0.20537 0.21019,0.29677 0.0798,0.0914 0.17586,0.17133 0.28864,0.21611 0.1579,0.0627 0.33463,0.052 0.50311,0.0302 0.16849,-0.0218 0.33878,-0.0537 0.50704,-0.0302 0.24546,0.0342 0.46273,0.18488 0.62534,0.37191 0.16261,0.18702 0.2777,0.40973 0.39045,0.63043 0.11275,0.2207 0.22622,0.44402 0.3863,0.63321 0.16008,0.18919 0.37376,0.34397 0.61821,0.38475 0.16717,0.0279 0.33792,0.002 0.5062,-0.0186 0.16827,-0.0202 0.34271,-0.0335 0.50396,0.0186 0.11489,0.0372 0.21757,0.10629 0.30566,0.18888 0.0881,0.0826 0.16248,0.1786 0.23289,0.27669 0.14084,0.19618 0.27257,0.4078 0.4716,0.54458 0.21601,0.14846 0.49061,0.19153 0.75193,0.17111 0.26131,-0.0204 0.51401,-0.0994 0.76427,-0.17733 0.25025,-0.0779 0.5034,-0.15589 0.76487,-0.17414 0.26148,-0.0183 0.53587,0.0283 0.74939,0.18036 0.19722,0.14041 0.32482,0.35545 0.46475,0.55301 0.07,0.0988 0.14474,0.19505 0.23417,0.27662 0.0894,0.0816 0.19454,0.14835 0.31123,0.18053 0.16363,0.0451 0.33734,0.02 0.50537,-0.004 0.16802,-0.0241 0.34268,-0.0463 0.50478,0.004 0.11554,0.0359 0.21773,0.10719 0.30377,0.19227 0.086,0.0851 0.15708,0.18393 0.22507,0.28401 0.068,0.10009 0.13351,0.20216 0.21022,0.29573 0.0767,0.0936 0.1655,0.17909 0.2711,0.23814 0.15042,0.0841 0.3278,0.11023 0.49996,0.10244 0.17216,-0.008 0.34108,-0.0477 0.5085,-0.0886 0.16742,-0.0409 0.33555,-0.0831 0.50743,-0.0956 0.17188,-0.0125 0.34958,0.006 0.50441,0.0817 0.21625,0.10569 0.3653,0.30898 0.50538,0.50471 0.14008,0.19573 0.28881,0.39917 0.50477,0.50544 0.15457,0.0761 0.33211,0.0953 0.50396,0.0834 0.17186,-0.0119 0.34007,-0.0536 0.5075,-0.0941 0.16742,-0.0406 0.33624,-0.0804 0.50831,-0.0887 0.17207,-0.008 0.34937,0.0168 0.50054,0.0994 0.10601,0.0579 0.19575,0.14213 0.27345,0.23464 0.0777,0.0925 0.14424,0.19371 0.21267,0.29326 0.0684,0.0995 0.13935,0.19817 0.22444,0.28392 0.0851,0.0857 0.18547,0.1587 0.29959,0.19833 0.17273,0.06 0.36415,0.0395 0.53952,-0.0122 0.17537,-0.0517 0.34034,-0.13325 0.51175,-0.19692 0.1714,-0.0637 0.35481,-0.10988 0.53616,-0.0865 0.0907,0.0117 0.17969,0.0411 0.25631,0.091 0.0766,0.0499 0.14042,0.12075 0.17657,0.20472 0.0339,0.0786 0.0428,0.16621 0.0382,0.25171 -0.005,0.0855 -0.0222,0.16969 -0.0396,0.25352 -0.0174,0.0838 -0.0348,0.16809 -0.0389,0.25362 -0.004,0.0855 0.006,0.17306 0.0404,0.25131 0.0371,0.0835 0.10182,0.15339 0.1791,0.20204 0.0773,0.0486 0.16668,0.0766 0.25743,0.0868 0.1815,0.0204 0.36386,-0.0285 0.53452,-0.0936 0.17065,-0.0651 0.33538,-0.14686 0.5111,-0.19667 0.17573,-0.0498 0.36829,-0.0657 0.53815,0.001 0.11265,0.0445 0.20921,0.12324 0.29002,0.21348 0.0808,0.0902 0.14715,0.19226 0.21335,0.2937 0.0662,0.10144 0.13295,0.20324 0.21444,0.29286 0.0815,0.0896 0.17903,0.16729 0.29234,0.21011 0.17283,0.0653 0.36754,0.0442 0.54395,-0.0107 0.1764,-0.0549 0.34095,-0.14183 0.51274,-0.20983 0.17179,-0.068 0.35717,-0.11761 0.54022,-0.0925 0.0915,0.0125 0.18114,0.0441 0.25669,0.0973 0.0756,0.0532 0.13647,0.12847 0.16671,0.21576 0.0283,0.0818 0.0292,0.17094 0.0173,0.25669 -0.0118,0.0857 -0.0359,0.16923 -0.0567,0.25327 -0.0208,0.084 -0.0383,0.16978 -0.0366,0.25632 0.002,0.0865 0.0238,0.17476 0.076,0.24387 0.054,0.0715 0.13693,0.11796 0.2242,0.13826 0.0873,0.0203 0.17878,0.0161 0.2669,-1.6e-4 0.17625,-0.0325 0.3418,-0.11171 0.51905,-0.1381 0.2735,-0.0407 0.56395,0.0551 0.75948,0.25067 0.19553,0.19553 0.29139,0.48598 0.25067,0.75948"
       id="path3116"
       inkscape:path-effect="#path-effect3118"
       inkscape:original-d="m 434.36559,570.51942 c 0.66762,2.17412 2.19158,3.9637 3.03046,6.06091 1.1564,2.89099 0.59891,2.68178 2.02031,5.05077 0.62462,1.04104 1.47736,1.94457 2.0203,3.03045 1.64317,3.28633 0.1355,3.16596 3.03046,6.06092 0.5324,0.5324 1.54996,0.42222 2.02031,1.01015 2.57042,1.58822 1.49183,5.01958 3.03045,7.07107 0.45176,0.60234 1.48791,0.47776 2.02031,1.01015 0.53239,0.5324 0.47775,1.48791 1.01015,2.02031 0.5324,0.53239 1.56855,0.40781 2.02031,1.01015 0.63887,0.85184 0.53396,2.07808 1.01015,3.03046 0.42592,0.85183 1.59439,1.16847 2.0203,2.0203 0.15059,0.30117 -0.23809,0.77206 0,1.01016 2.09004,2.09004 -0.0817,-3.19387 2.02031,1.01015 0.15058,0.30117 0,0.67343 0,1.01015 0.33672,0.33672 0.79719,0.58424 1.01015,1.01015 0.15059,0.30117 -0.23809,0.77206 0,1.01016 0.2381,0.23809 0.77206,-0.2381 1.01015,0 0.2381,0.23809 -0.23809,0.77205 0,1.01015 0.2381,0.23809 0.77206,-0.2381 1.01016,0 0.23809,0.23809 -0.15059,0.70898 0,1.01015 1.11675,2.2335 0.62694,0.31347 2.0203,1.01015 0.99402,0.49701 3.04659,3.5436 4.04061,4.04061 0.30117,0.15059 0.70898,-0.15058 1.01015,0 0.42592,0.21296 0.58424,0.7972 1.01016,1.01016 0.30117,0.15058 0.77205,-0.2381 1.01015,0 0.23809,0.23809 -0.2381,0.77205 0,1.01015 0.23809,0.23809 0.70898,-0.15059 1.01015,0 0.42592,0.21296 0.58424,0.79719 1.01015,1.01015 0.30117,0.15059 0.70899,-0.15058 1.01016,0 0.42591,0.21296 0.58423,0.79719 1.01015,1.01015 0.30117,0.15059 0.77206,-0.23809 1.01015,0 0.2381,0.2381 -0.23809,0.77206 0,1.01016 0.2381,0.23809 0.70898,-0.15059 1.01015,0 3.35026,3.35025 -0.95238,-0.47619 2.02031,1.01015 0.85183,0.42592 1.16847,1.59439 2.0203,2.0203 0.30117,0.15059 0.77206,-0.23809 1.01016,0 0.23809,0.2381 -0.30117,0.85957 0,1.01016 0.60234,0.30117 1.38143,-0.21296 2.0203,0 3.15301,1.051 -0.33672,0.67343 1.01015,2.0203 0.47619,0.47619 1.41797,-0.30117 2.02031,0 0.42592,0.21296 0.58423,0.79719 1.01015,1.01015 0.30117,0.15059 0.70899,-0.15058 1.01015,0 0.42592,0.21296 0.58424,0.7972 1.01016,1.01016 0.30117,0.15058 0.70898,-0.15059 1.01015,0 0.85184,0.42591 1.16847,1.59438 2.0203,2.0203 0.30117,0.15059 0.70899,-0.15058 1.01016,0 0.42591,0.21296 0.58423,0.7972 1.01015,1.01015 0.80812,0.40406 2.22234,-0.40406 3.03046,0 0.42592,0.21296 0.58423,0.7972 1.01015,1.01016 0.30117,0.15058 0.70898,-0.15059 1.01015,0 0.42592,0.21296 0.58424,0.79719 1.01016,1.01015 0.60233,0.30117 1.41796,-0.30117 2.0203,0 0.42592,0.21296 0.58423,0.79719 1.01015,1.01015 0.60234,0.30117 1.41797,-0.30117 2.02031,0 0.42592,0.21296 0.58423,0.7972 1.01015,1.01015 0.60234,0.30117 1.54411,-0.47619 2.02031,0 0.23809,0.2381 -0.2381,0.77206 0,1.01016 0.47619,0.47619 1.41796,-0.30117 2.0203,0 0.42592,0.21296 0.58424,0.79719 1.01015,1.01015 0.60234,0.30117 1.54412,-0.47619 2.02031,0 0.23809,0.23809 -0.2381,0.77206 0,1.01015 0.23809,0.2381 0.77206,-0.23809 1.01015,0 1.34687,1.34687 -1.68359,1.01015 1.01015,1.01015"
       inkscape:connector-curvature="0" />
    <path
       style="fill:none;stroke:#000000;stroke-width:1px;stroke-linecap:butt;stroke-linejoin:miter;stroke-opacity:1"
       d="m 503.05597,652.34177 0,15.15229 c 0,0.68646 -0.0719,1.37035 -0.18731,2.04705 -0.0577,0.33834 -0.1131,0.67959 -0.10436,1.02271 0.009,0.34312 0.0881,0.69453 0.29167,0.97085 0.14202,0.19275 0.33653,0.33893 0.52325,0.4888 0.18672,0.14986 0.37244,0.31107 0.4869,0.52136 0.12432,0.2284 0.15429,0.4985 0.13196,0.75758 -0.0223,0.25909 -0.0939,0.51102 -0.16255,0.76183 -0.0687,0.25081 -0.13516,0.50467 -0.14694,0.76445 -0.0118,0.25978 0.0351,0.52905 0.17753,0.74659 0.13159,0.20092 0.33326,0.34314 0.52502,0.48775 0.19176,0.14461 0.38457,0.3043 0.48513,0.52241 0.0588,0.1275 0.0827,0.26953 0.0799,0.4099 -0.003,0.14037 -0.0318,0.27933 -0.0749,0.41297 -0.0861,0.26728 -0.22721,0.51293 -0.33946,0.77032 -0.11225,0.25738 -0.19681,0.53803 -0.15958,0.81634 0.0186,0.13916 0.0685,0.27537 0.15309,0.38743 0.0846,0.11206 0.20491,0.1988 0.34096,0.23349 0.16517,0.0421 0.33878,0.007 0.50687,-0.0213 0.084,-0.0141 0.16878,-0.0265 0.254,-0.0264 0.0852,9e-5 0.17143,0.013 0.24929,0.0477 0.0836,0.0372 0.1555,0.0989 0.20905,0.17319 0.0535,0.0743 0.0891,0.16077 0.10813,0.25031 0.0381,0.17909 0.0107,0.36637 -0.0408,0.5421 -0.0514,0.17573 -0.12627,0.34362 -0.18572,0.5168 -0.0595,0.17317 -0.10378,0.35528 -0.0907,0.53791 0.0137,0.19199 0.0906,0.37501 0.19221,0.53848 0.10163,0.16346 0.22788,0.30992 0.35098,0.45789 0.1231,0.14797 0.24436,0.29936 0.33402,0.46968 0.0897,0.17032 0.14676,0.36227 0.13294,0.55425 -0.0127,0.17616 -0.0836,0.34265 -0.11544,0.51637 -0.0159,0.0869 -0.0219,0.17657 -0.006,0.26337 0.0162,0.0868 0.0559,0.17086 0.12115,0.23042 0.0643,0.0588 0.15004,0.0907 0.23659,0.10089 0.0865,0.0102 0.17432,-9e-5 0.25972,-0.0174 0.17081,-0.0346 0.34014,-0.0978 0.51384,-0.0835 0.14445,0.0119 0.28219,0.0786 0.38785,0.1778 0.10566,0.0992 0.17994,0.22956 0.22095,0.36857 0.082,0.27802 0.0322,0.57978 -0.0666,0.8523 -0.0987,0.27253 -0.24435,0.52538 -0.36115,0.79068 -0.11679,0.26529 -0.20584,0.55229 -0.18105,0.8411 0.0221,0.25775 0.13785,0.50645 0.32078,0.68938 0.18292,0.18292 0.43162,0.29865 0.68937,0.32078 l 1.01016,2.0203 c -0.15994,0.311 -0.15994,0.69915 0,1.01015 0.11262,0.219 0.29579,0.39472 0.49621,0.53781 0.20042,0.14309 0.41979,0.25703 0.63219,0.38166 0.21239,0.12462 0.42067,0.26225 0.5873,0.44358 0.16662,0.18132 0.28987,0.41144 0.3046,0.65726 0.0111,0.18589 -0.0395,0.37017 -0.10546,0.54431 -0.066,0.17414 -0.14774,0.34244 -0.20319,0.52021 -0.0555,0.17777 -0.0838,0.36942 -0.0397,0.55034 0.022,0.0905 0.0623,0.17704 0.12163,0.24882 0.0593,0.0718 0.13799,0.12834 0.2267,0.15662 0.0819,0.0261 0.16992,0.0278 0.25533,0.018 0.0854,-0.01 0.16909,-0.0306 0.2531,-0.0488 0.084,-0.0182 0.16923,-0.034 0.25519,-0.0332 0.086,7.5e-4 0.1734,0.0188 0.24653,0.064 0.0799,0.0494 0.13883,0.12936 0.17046,0.21785 0.0316,0.0885 0.0371,0.18506 0.0244,0.27817 -0.0254,0.18622 -0.12017,0.35468 -0.21171,0.51883 -0.0915,0.16415 -0.18352,0.33482 -0.20253,0.52181 -0.01,0.0935 1.4e-4,0.18992 0.0363,0.27667 0.0362,0.0867 0.0999,0.16321 0.18309,0.20698 0.0762,0.0401 0.16503,0.0515 0.25104,0.0464 0.086,-0.005 0.17028,-0.0255 0.25398,-0.046 0.0837,-0.0205 0.16794,-0.041 0.25395,-0.0462 0.086,-0.005 0.1748,0.006 0.25119,0.0457 0.0832,0.0434 0.14723,0.11935 0.18387,0.20572 0.0366,0.0864 0.047,0.18255 0.0381,0.27595 -0.0176,0.1868 -0.10822,0.35786 -0.19892,0.52211 -0.0907,0.16425 -0.18505,0.33232 -0.21147,0.51808 -0.0132,0.0929 -0.009,0.18925 0.0219,0.27798 0.0304,0.0887 0.0878,0.16944 0.16652,0.22046 0.0722,0.0468 0.15912,0.067 0.24507,0.0697 0.0859,0.003 0.17154,-0.0114 0.25574,-0.0289 0.0842,-0.0175 0.16784,-0.0383 0.25309,-0.0496 0.0853,-0.0112 0.17295,-0.0126 0.25625,0.009 0.11821,0.0303 0.22132,0.10503 0.30397,0.19481 0.0827,0.0898 0.1469,0.19466 0.20957,0.29937 0.0627,0.10472 0.12475,0.21063 0.20388,0.30354 0.0791,0.0929 0.1772,0.17311 0.29273,0.21244 0.0806,0.0274 0.16713,0.0341 0.25219,0.03 0.0851,-0.004 0.16922,-0.0188 0.25316,-0.0332 0.0839,-0.0144 0.16821,-0.0285 0.25332,-0.0316 0.0851,-0.003 0.17158,0.005 0.25148,0.0348 0.0954,0.0352 0.17853,0.0998 0.24253,0.17874 0.064,0.079 0.10938,0.17195 0.14001,0.26887 0.0613,0.19383 0.0642,0.40044 0.0724,0.60355 0.008,0.20312 0.0234,0.41102 0.10633,0.59662 0.0415,0.0928 0.1,0.17885 0.17646,0.24577 0.0765,0.0669 0.17158,0.11405 0.27242,0.12675 0.0884,0.0111 0.17816,-0.004 0.26411,-0.0275 0.086,-0.0234 0.16953,-0.055 0.25567,-0.0778 0.0861,-0.0228 0.17626,-0.0366 0.26437,-0.0234 0.0441,0.007 0.0873,0.02 0.12633,0.0414 0.0391,0.0214 0.0739,0.051 0.0997,0.0873 0.0511,0.0721 0.0632,0.16607 0.0525,0.25383 -0.0107,0.0877 -0.0422,0.1714 -0.0719,0.25469 -0.0296,0.0833 -0.0579,0.16854 -0.0618,0.25687 -0.002,0.0442 0.002,0.0888 0.0154,0.13106 0.013,0.0422 0.035,0.082 0.0658,0.1137 0.0303,0.0311 0.0685,0.0538 0.10935,0.0685 0.0408,0.0147 0.0842,0.0215 0.12756,0.023 0.0867,0.003 0.17271,-0.0144 0.25755,-0.0325 0.16969,-0.0362 0.34218,-0.0589 0.51569,-0.0589 l 1.01015,0"
       id="path3120"
       inkscape:path-effect="#path-effect3122"
       inkscape:original-d="m 503.05597,652.34177 c 0,5.05077 0,10.10153 0,15.15229 0,1.34687 -0.32667,2.73396 0,4.04061 0.11549,0.46198 0.79719,0.58424 1.01015,1.01016 0.40406,0.80812 -0.40406,2.22233 0,3.03045 0.21296,0.42592 0.79719,0.58424 1.01015,1.01016 0.20026,0.40051 -0.20651,2.82394 0,3.03045 0.2381,0.2381 0.77206,-0.23809 1.01016,0 0.47619,0.47619 -0.21296,1.38143 0,2.02031 0.23809,0.71428 0.77205,1.30602 1.01015,2.0203 0.10648,0.31944 -0.2381,0.77206 0,1.01016 0.23809,0.23809 0.90367,-0.31944 1.01015,0 0.31944,0.95831 -0.245,2.05046 0,3.03045 0.11549,0.46198 0.74601,0.61394 1.01015,1.01016 0.33672,0.67343 0.67344,1.34687 1.01016,2.0203 0,0.33672 -0.15059,0.70898 0,1.01015 0.42591,0.85184 1.59438,1.16847 2.0203,2.02031 0.30117,0.60234 -0.47619,1.54411 0,2.0203 0.2381,0.2381 0.77206,-0.23809 1.01015,0 0.47619,0.47619 -0.47619,1.54412 0,2.02031 0.2381,0.23809 0.77206,-0.2381 1.01016,0 0.47619,0.47619 -0.47619,1.54411 0,2.0203 0.23809,0.2381 0.70898,-0.15058 1.01015,0 0.42592,0.21296 0.58423,0.7972 1.01015,1.01016 0.30117,0.15058 0.70898,-0.15059 1.01015,0 4.20402,2.102 -1.07989,-0.0697 1.01016,2.0203 0.23809,0.2381 0.77205,-0.23809 1.01015,0 0.23809,0.2381 -0.2381,0.77206 0,1.01015 0.23809,0.2381 0.67343,0 1.01015,0 0.33672,0 0.67344,0 1.01015,0"
       inkscape:connector-curvature="0" />
    <path
       style="fill:none;stroke:#000000;stroke-width:1px;stroke-linecap:butt;stroke-linejoin:miter;stroke-opacity:1"
       d="m 304.05592,658.40269 0,14.14214 c 0,0.51176 0.0445,1.0222 0.11613,1.52891 0.0358,0.25336 0.0702,0.50819 0.0651,0.76402 -0.005,0.25583 -0.0529,0.51612 -0.1812,0.73752 -0.1199,0.20695 -0.30322,0.36871 -0.48805,0.52051 -0.18483,0.15181 -0.37665,0.29979 -0.52211,0.48965 -0.26651,0.34788 -0.35174,0.80795 -0.32216,1.24518 0.0296,0.43723 0.16406,0.85972 0.29943,1.27651 0.13537,0.4168 0.27361,0.83758 0.31114,1.2742 0.0375,0.43662 -0.0347,0.89753 -0.28841,1.25487 -0.13824,0.19472 -0.32344,0.35033 -0.50619,0.50405 -0.18275,0.15372 -0.36738,0.31021 -0.50396,0.5061 -0.25149,0.36071 -0.31606,0.82524 -0.27026,1.26257 0.0458,0.43733 0.19262,0.85675 0.33315,1.27341 0.14054,0.41666 0.27696,0.84098 0.30069,1.28006 0.0119,0.21954 -0.005,0.44163 -0.0629,0.65375 -0.0578,0.21211 -0.15748,0.41418 -0.30072,0.58097 -0.1567,0.18247 -0.3598,0.31756 -0.54882,0.4663 -0.18901,0.14873 -0.37144,0.32077 -0.46133,0.54386 -0.0527,0.13083 -0.0709,0.27412 -0.0635,0.41498 0.007,0.14086 0.04,0.27956 0.0856,0.41304 0.0912,0.26695 0.23387,0.51303 0.34493,0.77236 0.11105,0.25933 0.19127,0.5433 0.14717,0.82194 -0.0221,0.13932 -0.076,0.27484 -0.16428,0.38481 -0.0883,0.10998 -0.21208,0.19319 -0.34988,0.22332 -0.16706,0.0365 -0.3398,-0.005 -0.50818,-0.0348 -0.0842,-0.0149 -0.16939,-0.027 -0.25487,-0.0248 -0.0855,0.002 -0.17172,0.0192 -0.2471,0.0596 -0.0798,0.0427 -0.14489,0.11066 -0.18945,0.18943 -0.0445,0.0788 -0.069,0.16806 -0.0769,0.25821 -0.0158,0.18031 0.0334,0.36009 0.0965,0.52974 0.0631,0.16965 0.1407,0.33455 0.18567,0.50988 0.045,0.17532 0.0551,0.36649 -0.0157,0.53305 -0.0475,0.11165 -0.12884,0.20621 -0.22097,0.28515 -0.0921,0.0789 -0.19541,0.1436 -0.29749,0.20917 -0.10208,0.0656 -0.20396,0.13284 -0.2922,0.21611 -0.0882,0.0833 -0.16293,0.18404 -0.1995,0.29972 -0.0513,0.16215 -0.0241,0.33734 0.003,0.50529 0.0267,0.16794 0.052,0.34383 -0.003,0.50486 -0.0391,0.11512 -0.1169,0.21398 -0.20757,0.29496 -0.0907,0.081 -0.19441,0.14574 -0.29757,0.21007 -0.10316,0.0643 -0.20688,0.12909 -0.29754,0.2101 -0.0906,0.081 -0.16844,0.17989 -0.20747,0.29503 -0.0546,0.16106 -0.0292,0.33694 -0.002,0.50488 0.0268,0.16794 0.0539,0.34318 0.002,0.50527 -0.0367,0.11565 -0.11162,0.2163 -0.20003,0.29941 -0.0884,0.0831 -0.19042,0.15019 -0.29258,0.21567 -0.10216,0.0655 -0.20548,0.13012 -0.29751,0.2092 -0.092,0.0791 -0.17314,0.17395 -0.22003,0.28587 -0.0703,0.1677 -0.058,0.35983 -0.0109,0.53543 0.0472,0.1756 0.12704,0.34037 0.19145,0.5104 0.0644,0.17003 0.11402,0.35095 0.0964,0.53192 -0.009,0.0905 -0.0348,0.1799 -0.0813,0.25803 -0.0465,0.0781 -0.11397,0.14459 -0.19564,0.18453 -0.0768,0.0376 -0.16373,0.0509 -0.24922,0.0499 -0.0855,-0.001 -0.17019,-0.0158 -0.25413,-0.0321 -0.0839,-0.0162 -0.16784,-0.034 -0.25305,-0.041 -0.0852,-0.007 -0.17241,-0.003 -0.25375,0.0232 -0.14107,0.0457 -0.25569,0.15817 -0.31871,0.2924 -0.063,0.13422 -0.0771,0.28825 -0.0558,0.43499 0.0427,0.29348 0.21753,0.54829 0.38652,0.792 0.16898,0.24372 0.34186,0.50052 0.37967,0.79467 0.0189,0.14707 0.002,0.30095 -0.0648,0.43356 -0.0663,0.13261 -0.18439,0.24185 -0.3269,0.28283 -0.0825,0.0237 -0.1701,0.0245 -0.25537,0.0147 -0.0853,-0.01 -0.16897,-0.0297 -0.25304,-0.047 -0.0841,-0.0173 -0.1693,-0.0319 -0.25511,-0.0306 -0.0858,0.001 -0.17287,0.0191 -0.24664,0.0629 -0.0792,0.0471 -0.13961,0.12261 -0.1753,0.2075 -0.0357,0.0849 -0.0475,0.17874 -0.0417,0.27065 0.0116,0.18383 0.0908,0.35586 0.17243,0.52099 0.0816,0.16513 0.16812,0.33201 0.19626,0.51404 0.0141,0.091 0.013,0.18513 -0.0109,0.27407 -0.0239,0.0889 -0.0714,0.17253 -0.14077,0.23306 -0.0659,0.0575 -0.14956,0.0925 -0.23562,0.10823 -0.0861,0.0157 -0.17469,0.0127 -0.26131,5.1e-4 -0.17324,-0.0245 -0.33981,-0.0855 -0.51322,-0.10874 -0.24463,-0.0327 -0.49914,0.0128 -0.71725,0.12827 -0.21812,0.11551 -0.39879,0.30045 -0.50917,0.52121 -0.11038,0.22075 -0.14993,0.47626 -0.11147,0.72005 0.0385,0.2438 0.15476,0.47472 0.32774,0.65077"
       id="path3124"
       inkscape:path-effect="#path-effect3126"
       inkscape:original-d="m 304.05592,658.40269 c 0,4.71405 0,9.42809 0,14.14214 0,0.45493 0.15371,2.72303 0,3.03045 -0.21296,0.42592 -0.7972,0.58424 -1.01016,1.01016 -0.31863,0.63727 0.31864,4.41348 0,5.05076 -0.21296,0.42592 -0.79719,0.58423 -1.01015,1.01015 -0.31864,0.63728 0.31864,4.41349 0,5.05076 -0.21296,0.42592 -0.79719,0.58424 -1.01015,1.01016 -0.20026,0.40051 0.20651,2.82394 0,3.03045 -0.2381,0.2381 -0.77206,-0.23809 -1.01015,0 -0.47619,0.47619 0.30117,1.41797 0,2.02031 -0.21296,0.42592 -0.7972,0.58423 -1.01016,1.01015 -0.15058,0.30117 0.15059,0.70898 0,1.01015 -0.21296,0.42592 -0.79719,0.58424 -1.01015,1.01016 -0.15058,0.30117 0.15059,0.70898 0,1.01015 -0.21296,0.42592 -0.79719,0.58423 -1.01015,1.01015 -0.30117,0.60234 0.47619,1.54412 0,2.02031 -0.2381,0.23809 -0.77206,-0.2381 -1.01015,0 -0.50508,0.50507 0.50507,2.52538 0,3.03045 -0.2381,0.2381 -0.77206,-0.23809 -1.01016,0 -0.47619,0.47619 0.47619,1.54412 0,2.02031 -0.23809,0.23809 -0.77205,-0.2381 -1.01015,0 -0.99649,0.99649 2.06988,2.0203 -1.01015,2.0203"
       inkscape:connector-curvature="0" />
    <path
       style="fill:#000000;fill-rule:evenodd;stroke:none"
       d="m 243.44676,485.6666 c -0.22134,-0.71509 3.67825,-2.66508 10.91708,-5.56305 7.23884,-2.89797 17.81755,-6.74403 30.89852,-11.24195 0,0 0,0 10e-6,0 10.483,-0.6209 22.53271,-1.219 35.72322,-1.77126 13.51057,5.17382 28.30951,10.97518 43.78925,17.15474 0.85292,3.39184 1.7097,6.81328 2.57065,10.25627 0.22099,0.88374 0.44154,1.76604 0.66165,2.64676 -9.46346,1.52744 -18.71039,3.00291 -27.62064,4.3469 -11.42454,4.14158 -22.25835,8.01028 -32.23976,11.53197 -19.70224,-7.30397 -36.10283,-13.69528 -47.43217,-18.48539 -11.32934,-4.79011 -17.58981,-7.97899 -17.26781,-8.87499 0.322,-0.896 7.14728,0.61781 18.52326,3.98743 11.37598,3.36961 27.30028,8.59506 46.0763,15.11921 9.46144,-4.00457 19.65592,-8.27585 30.38971,-12.71169 8.04104,0.69202 16.3626,1.49178 24.90727,2.3266 -0.33133,-0.22218 -0.66316,-0.44462 -0.99544,-0.66741 -1.29452,-0.86796 -2.57962,-1.73028 -3.85348,-2.592 -13.80775,-5.2497 -26.92163,-10.34115 -39.04325,-15.17014 -12.01009,0.18893 -23.10644,0.27159 -32.96716,0.24904 0,0 0,0 0,0 -12.92329,3.55101 -23.55778,6.27095 -31.03108,7.92673 -7.4733,1.65579 -11.78479,2.24732 -12.00613,1.53223 z"
       id="path3128"
       inkscape:path-effect="#path-effect3130;#path-effect3132"
       inkscape:original-d="m 243.44676,485.6666 42.42641,-13.13198 34.34519,-1.01015 41.41625,16.16244 4.04061,8.08122 -26.26396,1.01015 -31.31473,12.12183 z"
       inkscape:connector-curvature="0" />
    <path
       style="fill:#000000;fill-rule:evenodd;stroke:none"
       d="m 558.25917,486.3253 c -0.22134,0.71509 -4.53283,0.12356 -12.00613,-1.53223 -7.4733,-1.65578 -18.10779,-4.37572 -31.03108,-7.92673 0,0 0,0 0,0 -9.86072,0.0226 -20.95707,-0.0601 -32.96716,-0.24904 -12.12162,4.82899 -25.2355,9.92044 -39.04325,15.17014 -1.27386,0.86172 -2.55896,1.72404 -3.85348,2.592 -0.33228,0.22279 -0.66411,0.44523 -0.99544,0.66741 8.54467,-0.83482 16.86623,-1.63458 24.90727,-2.3266 10.73379,4.43584 20.92827,8.70712 30.38971,12.71169 18.77602,-6.52415 34.70032,-11.7496 46.0763,-15.11921 11.37598,-3.36962 18.20126,-4.88343 18.52326,-3.98743 0.322,0.896 -5.93847,4.08488 -17.26781,8.87499 -11.32934,4.79011 -27.72993,11.18142 -47.43217,18.48539 -9.98141,-3.52169 -20.81522,-7.39039 -32.23976,-11.53197 -8.91025,-1.34399 -18.15718,-2.81946 -27.62064,-4.3469 0.22011,-0.88072 0.44066,-1.76302 0.66165,-2.64676 0.86095,-3.44299 1.71773,-6.86443 2.57065,-10.25627 15.47974,-6.17956 30.27868,-11.98092 43.78925,-17.15474 13.19051,0.55226 25.24022,1.15036 35.72322,1.77126 10e-6,0 10e-6,0 10e-6,0 13.08097,4.49792 23.65968,8.34398 30.89852,11.24195 7.23883,2.89797 11.13842,4.84796 10.91708,5.56305 z"
       id="path3128-9"
       inkscape:path-effect="#path-effect3170;#path-effect3172"
       inkscape:original-d="m 558.25917,486.3253 -42.42641,-13.13198 -34.34519,-1.01015 -41.41625,16.16244 -4.04061,8.08122 26.26396,1.01015 31.31473,12.12183 z"
       inkscape:connector-curvature="0" />
    <path
       style="fill:#000000;fill-rule:evenodd;stroke:none"
       d="m 228.29448,461.42294 c -0.33195,-0.71133 3.79144,-3.45483 11.47641,-7.76148 7.68497,-4.30665 18.9321,-10.17665 32.79259,-17.12315 14.13331,-3.05407 30.81854,-6.45539 49.11674,-10.01543 10.98425,5.61745 22.57664,11.70845 34.53737,18.00989 1.20884,0.63686 2.41362,1.27171 3.61409,1.90424 0,1e-5 -1e-5,1e-5 -1e-5,1e-5 -18.16312,2.76565 -35.4628,5.37614 -51.18898,7.60949 -15.72618,2.23335 -29.87874,4.08857 -41.76051,5.43866 -11.88177,1.35009 -21.49274,2.19509 -28.14961,2.51015 -6.65686,0.31506 -10.35976,0.10124 -10.43809,-0.57238 -0.0783,-0.67362 3.47331,-1.73099 9.95678,-2.94387 6.48348,-1.21289 15.89865,-2.58023 27.56012,-3.96773 11.66147,-1.38749 25.56924,-2.7951 41.05175,-4.19067 15.48251,-1.39556 32.53989,-2.78008 50.51348,-4.21636 0,0 0,0 10e-6,0 -1.15334,-0.32172 -2.31047,-0.6444 -3.47119,-0.96817 -11.48466,-3.20346 -22.58791,-6.31339 -33.12863,-9.42228 -16.84043,3.16864 -32.35011,5.93229 -45.8376,8.16731 -13.86214,5.99072 -25.34343,10.72733 -33.45624,13.79297 -8.11281,3.06564 -12.85653,4.46013 -13.18848,3.7488 z"
       id="path3178"
       inkscape:path-effect="#path-effect3180;#path-effect3182"
       inkscape:original-d="m 228.29448,461.42294 45.45686,-21.2132 47.47717,-9.09137 37.37564,15.15229 z"
       inkscape:connector-curvature="0" />
    <path
       style="fill:#000000;fill-rule:evenodd;stroke:none"
       d="m 560.73405,461.34287 c -0.33195,0.71133 -5.07567,-0.68316 -13.18848,-3.7488 -8.11281,-3.06564 -19.5941,-7.80225 -33.45624,-13.79297 -13.48749,-2.23502 -28.99717,-4.99867 -45.8376,-8.16731 -10.54072,3.10889 -21.64397,6.21882 -33.12863,9.42228 -1.16072,0.32377 -2.31785,0.64645 -3.47119,0.96817 1e-5,0 1e-5,0 1e-5,0 17.97359,1.43628 35.03097,2.8208 50.51348,4.21636 15.48251,1.39557 29.39028,2.80318 41.05175,4.19067 11.66147,1.3875 21.07664,2.75484 27.56012,3.96773 6.48347,1.21288 10.03511,2.27025 9.95678,2.94387 -0.0783,0.67362 -3.78123,0.88744 -10.43809,0.57238 -6.65687,-0.31506 -16.26784,-1.16006 -28.14961,-2.51015 -11.88177,-1.35009 -26.03433,-3.20531 -41.76051,-5.43866 -15.72618,-2.23335 -33.02586,-4.84384 -51.18898,-7.60949 0,0 -1e-5,0 -1e-5,-10e-6 1.20047,-0.63253 2.40525,-1.26738 3.61409,-1.90424 11.96073,-6.30144 23.55312,-12.39244 34.53737,-18.00989 18.2982,3.56004 34.98343,6.96136 49.11674,10.01543 13.86049,6.9465 25.10762,12.8165 32.79259,17.12315 7.68497,4.30665 11.80836,7.05015 11.47641,7.76148 z"
       id="path3178-5"
       inkscape:path-effect="#path-effect3208;#path-effect3210"
       inkscape:original-d="m 560.73405,461.34287 -45.45686,-21.2132 -47.47717,-9.09137 -37.37564,15.15229 z"
       inkscape:connector-curvature="0" />
    <path
       style="fill:none;stroke:#000000;stroke-width:1px;stroke-linecap:butt;stroke-linejoin:miter;stroke-opacity:1"
       d="m 356.58385,605.87476 0,9.09137 34.34519,7.07107 2.0203,5.05076 c 0.01,-0.12562 0.0686,-0.24675 0.16117,-0.33228 0.0925,-0.0855 0.2179,-0.1346 0.34391,-0.1346 0.126,0 0.25137,0.0491 0.3439,0.1346 0.0925,0.0855 0.15128,0.20666 0.16117,0.33228 0.007,0.0885 -0.009,0.17725 -0.0325,0.26295 -0.0231,0.0857 -0.053,0.16952 -0.0739,0.25578 -0.0209,0.0863 -0.0328,0.17615 -0.0191,0.26385 0.0137,0.0877 0.0552,0.17344 0.12551,0.22757 0.0692,0.0533 0.16033,0.0717 0.24757,0.0676 0.0872,-0.004 0.17205,-0.0289 0.25552,-0.0546 0.0835,-0.0257 0.16736,-0.0526 0.25427,-0.0613 0.0869,-0.009 0.17845,0.002 0.2528,0.0483 0.0774,0.0477 0.12981,0.12983 0.1531,0.21768 0.0233,0.0878 0.0194,0.18111 0.002,0.27029 -0.035,0.17837 -0.12263,0.34334 -0.15504,0.52219 -0.0498,0.27499 0.043,0.57191 0.24063,0.76952 0.19761,0.19761 0.49453,0.29046 0.76952,0.24063"
       id="path3231"
       inkscape:path-effect="#path-effect3233"
       inkscape:original-d="m 356.58385,605.87476 0,9.09137 34.34519,7.07107 c 0.67343,1.68359 1.34687,3.36717 2.0203,5.05076 0.33672,0 0.77206,-0.23809 1.01015,0 0.2381,0.2381 -0.23809,0.77206 0,1.01015 0.2381,0.2381 0.77206,-0.23809 1.01016,0 0.23809,0.2381 -0.2381,0.77206 0,1.01016 1.34687,1.34687 1.01015,-1.68359 1.01015,1.01015"
       inkscape:connector-curvature="0" />
    <path
       style="fill:none;stroke:#000000;stroke-width:1px;stroke-linecap:butt;stroke-linejoin:miter;stroke-opacity:1"
       d="m 457.11441,605.88844 0,9.09137 -34.34519,7.07107 -2.0203,5.05076 c -0.01,-0.12562 -0.0686,-0.24675 -0.16117,-0.33228 -0.0925,-0.0855 -0.2179,-0.1346 -0.34391,-0.1346 -0.126,0 -0.25137,0.0491 -0.3439,0.1346 -0.0925,0.0855 -0.15128,0.20666 -0.16117,0.33228 -0.007,0.0885 0.009,0.17725 0.0325,0.26295 0.0231,0.0857 0.053,0.16952 0.0739,0.25578 0.0209,0.0863 0.0328,0.17615 0.0191,0.26385 -0.0137,0.0877 -0.0552,0.17344 -0.12551,0.22757 -0.0692,0.0533 -0.16033,0.0717 -0.24757,0.0676 -0.0872,-0.004 -0.17205,-0.0289 -0.25552,-0.0546 -0.0835,-0.0257 -0.16736,-0.0526 -0.25427,-0.0613 -0.0869,-0.009 -0.17845,0.002 -0.2528,0.0483 -0.0774,0.0477 -0.12981,0.12983 -0.1531,0.21768 -0.0233,0.0878 -0.0194,0.18111 -0.002,0.27029 0.035,0.17837 0.12263,0.34334 0.15504,0.52219 0.0498,0.27499 -0.043,0.57191 -0.24063,0.76952 -0.19761,0.19761 -0.49453,0.29046 -0.76952,0.24063 l -21.73866,0.99647"
       id="path3231-9"
       inkscape:path-effect="#path-effect3233-6"
       inkscape:original-d="m 457.11441,605.88844 0,9.09137 -34.34519,7.07107 c -0.67343,1.68359 -1.34687,3.36717 -2.0203,5.05076 -0.33672,0 -0.77206,-0.23809 -1.01015,0 -0.2381,0.2381 0.23809,0.77206 0,1.01015 -0.2381,0.2381 -0.77206,-0.23809 -1.01016,0 -0.23809,0.2381 0.2381,0.77206 0,1.01016 -1.34687,1.34687 -1.01015,-1.68359 -1.01015,1.01015 l -21.73866,0.99647"
       inkscape:connector-curvature="0" />
    <path
       style="fill:none;stroke:#000000;stroke-width:1px;stroke-linecap:butt;stroke-linejoin:miter;stroke-opacity:1"
       d="m 246.47722,498.79859 c -0.49376,-0.60582 -1.19783,-1.03681 -1.96193,-1.20099 -0.76411,-0.16419 -1.58307,-0.0605 -2.2821,0.28907 -0.69904,0.34952 -1.2734,0.94244 -1.60052,1.65224 -0.32711,0.70979 -0.40476,1.53164 -0.21636,2.29014 0.0421,0.16956 0.0972,0.33706 0.11408,0.51096 0.008,0.087 0.007,0.1753 -0.0103,0.26091 -0.0174,0.0856 -0.0512,0.16853 -0.10378,0.23828 -0.0534,0.0709 -0.12541,0.12688 -0.20523,0.16565 -0.0798,0.0388 -0.16733,0.0606 -0.25569,0.0688 -0.17673,0.0163 -0.35414,-0.0215 -0.52407,-0.0727 -0.16993,-0.0512 -0.33594,-0.11607 -0.50879,-0.15632 -0.17285,-0.0402 -0.35613,-0.055 -0.52653,-0.005 -0.11622,0.0338 -0.22268,0.0967 -0.31595,0.17386 -0.0933,0.0772 -0.17392,0.1685 -0.2482,0.26407 -0.14857,0.19115 -0.27413,0.40171 -0.446,0.57222 -0.26522,0.26312 -0.63656,0.41607 -1.01016,0.41607 -0.37359,0 -0.74493,-0.15295 -1.01015,-0.41607 -0.27303,-0.0381 -0.56161,0.0587 -0.75654,0.25361 -0.19493,0.19493 -0.29167,0.48351 -0.25361,0.75654 0.0246,0.17681 0.10148,0.34253 0.13321,0.51821 0.0159,0.0878 0.0202,0.17888 7.4e-4,0.266 -0.0195,0.0871 -0.0642,0.17028 -0.13395,0.22595 -0.0677,0.054 -0.15503,0.0793 -0.24153,0.0838 -0.0865,0.005 -0.17284,-0.0105 -0.25725,-0.0299 -0.0844,-0.0194 -0.16788,-0.0434 -0.25337,-0.0574 -0.0855,-0.0139 -0.17399,-0.0176 -0.258,0.003 -0.11906,0.0299 -0.22159,0.10782 -0.30173,0.20078 -0.0802,0.093 -0.14044,0.20102 -0.2005,0.30806 -0.0601,0.10704 -0.12112,0.21477 -0.20249,0.30667 -0.0814,0.0919 -0.18563,0.16794 -0.30543,0.19464 -0.0851,0.019 -0.17413,0.0123 -0.25975,-0.004 -0.0856,-0.0166 -0.16903,-0.0429 -0.25377,-0.0635 -0.0847,-0.0206 -0.17197,-0.0356 -0.25893,-0.0289 -0.087,0.007 -0.17428,0.0368 -0.23771,0.0967 -0.0638,0.0602 -0.099,0.14642 -0.10959,0.23351 -0.0106,0.0871 0.002,0.1755 0.0212,0.26101 0.0197,0.0855 0.0467,0.16918 0.0665,0.25466 0.0198,0.0855 0.0322,0.17384 0.0219,0.26097 -0.0144,0.12234 -0.0751,0.23866 -0.16718,0.32051 -0.0921,0.0818 -0.21471,0.12847 -0.3379,0.12847 -0.12318,0 -0.24582,-0.0466 -0.33789,-0.12847 -0.0921,-0.0818 -0.15274,-0.19817 -0.16718,-0.32051 -0.27573,-0.0548 -0.57626,0.0363 -0.77505,0.2351 -0.19879,0.19879 -0.28995,0.49932 -0.2351,0.77505 0.0358,0.17979 0.12817,0.34443 0.16453,0.5241 0.0182,0.0898 0.0218,0.18417 -0.003,0.27235 -0.025,0.0882 -0.0809,0.16976 -0.16135,0.21371 -0.0777,0.0425 -0.17145,0.0469 -0.25875,0.032 -0.0873,-0.0149 -0.17036,-0.0477 -0.25408,-0.0766 -0.0837,-0.0289 -0.17033,-0.0543 -0.25889,-0.0535 -0.0443,4.1e-4 -0.0887,0.008 -0.13003,0.0235 -0.0413,0.016 -0.0794,0.0411 -0.1084,0.0745 -0.0292,0.0337 -0.0487,0.0752 -0.059,0.11855 -0.0102,0.0434 -0.0114,0.0886 -0.007,0.13288 0.01,0.0886 0.0433,0.17256 0.0756,0.25562 0.0323,0.083 0.0642,0.16794 0.0703,0.25686 0.003,0.0445 -4.2e-4,0.0896 -0.0133,0.1323 -0.0129,0.0427 -0.0354,0.0828 -0.0672,0.11394 -0.0319,0.0312 -0.0726,0.0528 -0.1156,0.0648 -0.043,0.012 -0.0883,0.0145 -0.13278,0.0106 -0.0889,-0.008 -0.17342,-0.041 -0.25642,-0.074 -0.083,-0.0329 -0.16734,-0.0663 -0.25623,-0.0747 -0.0444,-0.004 -0.0898,-0.002 -0.13287,0.01 -0.0431,0.0116 -0.084,0.0328 -0.11626,0.0636 -0.0322,0.0308 -0.0551,0.0705 -0.0686,0.11289 -0.0135,0.0424 -0.0176,0.0875 -0.0152,0.13189 0.005,0.0888 0.0356,0.17404 0.0674,0.25717 0.0317,0.0831 0.0651,0.16687 0.0759,0.25521 0.005,0.0442 0.005,0.0893 -0.004,0.13281 -0.009,0.0435 -0.0274,0.0855 -0.0552,0.12018 -0.0277,0.0345 -0.0645,0.0613 -0.105,0.0793 -0.0404,0.018 -0.0845,0.0274 -0.12865,0.03 -0.0884,0.005 -0.17623,-0.016 -0.26065,-0.0427 -0.0844,-0.0267 -0.16733,-0.0591 -0.25403,-0.0772 -0.0867,-0.018 -0.17908,-0.021 -0.26182,0.0106 -0.0901,0.0344 -0.16243,0.1085 -0.20345,0.19582 -0.041,0.0873 -0.0522,0.18688 -0.0415,0.28276 0.0214,0.19176 0.12543,0.36305 0.22826,0.52632 0.10283,0.16327 0.20953,0.33207 0.23755,0.52298 0.014,0.0955 0.007,0.19517 -0.0293,0.2845 -0.0365,0.0893 -0.10395,0.16743 -0.19152,0.20793 -0.0791,0.0366 -0.16975,0.0412 -0.2561,0.0297 -0.0863,-0.0115 -0.16982,-0.0381 -0.25359,-0.062 -0.0838,-0.0239 -0.16936,-0.0452 -0.25647,-0.0454 -0.0871,-2.9e-4 -0.17684,0.0222 -0.24399,0.0777 -0.0681,0.0563 -0.10741,0.14223 -0.12002,0.22971 -0.0126,0.0875 -6.4e-4,0.17684 0.0198,0.26282 0.0205,0.086 0.0494,0.16974 0.0713,0.25536 0.022,0.0856 0.037,0.17425 0.0289,0.26226 -0.0115,0.1245 -0.0709,0.24396 -0.16327,0.32821 -0.0924,0.0843 -0.21678,0.13247 -0.34181,0.13247 -0.12502,0 -0.24943,-0.0482 -0.3418,-0.13247 -0.0924,-0.0842 -0.1518,-0.20371 -0.16327,-0.32821 -0.33672,0.33672 -0.67344,0.67343 -1.01016,1.01015 -0.33672,0.33672 -0.67343,0.67343 -1.01015,1.01015"
       id="path3256"
       inkscape:path-effect="#path-effect3258"
       inkscape:original-d="m 246.47722,498.79859 c 2.68591,12.51684 -4.46372,1.43326 -6.06091,3.03046 -0.2381,0.23809 0.23809,0.77205 0,1.01015 -0.47619,0.47619 -1.41797,-0.30117 -2.02031,0 -0.42592,0.21296 -0.58423,0.79719 -1.01015,1.01015 -0.60234,0.30117 -1.54412,-0.47619 -2.02031,0 0,2.69374 0.33672,-0.33672 -1.01015,1.01015 -0.23809,0.2381 0.2381,0.77206 0,1.01016 -0.23809,0.23809 -0.70898,-0.15059 -1.01015,0 -0.42592,0.21295 -0.58424,0.79719 -1.01015,1.01015 -0.30117,0.15058 -0.77206,-0.2381 -1.01016,0 -0.23809,0.23809 0.2381,0.77206 0,1.01015 -0.23809,0.2381 -0.77205,-0.23809 -1.01015,0 0,2.69374 0.33672,-0.33672 -1.01015,1.01015 -0.2381,0.2381 0.23809,0.77206 0,1.01016 -0.2381,0.23809 -0.77206,-0.2381 -1.01015,0 -0.2381,0.23809 0.23809,0.77205 0,1.01015 -0.2381,0.23809 -0.77206,-0.2381 -1.01016,0 -0.23809,0.23809 0.2381,0.77206 0,1.01015 -0.23809,0.2381 -0.77205,-0.23809 -1.01015,0 -0.47619,0.47619 0.47619,1.54412 0,2.02031 -0.2381,0.23809 -0.77206,-0.2381 -1.01015,0 -0.2381,0.23809 0.33672,1.01015 0,1.01015 -0.30185,0 0.66497,-3.35026 -1.01015,0 0,2.69374 0.33671,-0.33672 -1.01016,1.01015 -1.34687,1.34687 1.68359,1.01015 -1.01015,1.01015"
       inkscape:connector-curvature="0" />
    <path
       style="fill:none;stroke:#000000;stroke-width:1px;stroke-linecap:butt;stroke-linejoin:miter;stroke-opacity:1"
       d="m 560.63466,492.73767 c -0.0325,0.48988 0.11224,0.98962 0.40142,1.38637 0.28917,0.39676 0.72062,0.6875 1.19692,0.80657 0.47629,0.11908 0.9938,0.0656 1.43566,-0.14841 0.44187,-0.214 0.80471,-0.58685 1.00661,-1.03437 0.25377,-0.56251 0.24459,-1.23727 -0.0244,-1.79266 -0.26898,-0.5554 -0.79269,-0.98098 -1.39136,-1.13065 -0.59868,-0.14967 -1.26105,-0.0206 -1.75974,0.34286 -0.4987,0.36348 -0.82434,0.95454 -0.86513,1.57029 -0.0367,0.55423 0.15231,1.11473 0.49235,1.55392 0.34004,0.43919 0.82475,0.75833 1.35341,0.92871 0.52866,0.17038 1.09929,0.19546 1.64732,0.10501 0.54803,-0.0905 1.07405,-0.29418 1.55769,-0.56733 0.16716,-0.0944 0.33552,-0.1993 0.52559,-0.22629 0.095,-0.0135 0.19433,-0.006 0.28274,0.0311 0.0884,0.0374 0.16501,0.10653 0.20182,0.19518 0.0339,0.0817 0.0327,0.17428 0.0156,0.26106 -0.0171,0.0868 -0.0494,0.16972 -0.0764,0.25395 -0.027,0.0842 -0.0491,0.17171 -0.0449,0.26007 0.002,0.0442 0.0108,0.0883 0.0282,0.12893 0.0174,0.0407 0.0435,0.0779 0.0775,0.10614 0.0342,0.0283 0.0757,0.0472 0.11901,0.0571 0.0433,0.01 0.0883,0.0111 0.13246,0.006 0.0883,-0.009 0.17229,-0.0418 0.25541,-0.0731 0.0831,-0.0313 0.16795,-0.062 0.25656,-0.0681 0.0443,-0.003 0.0893,3.3e-4 0.13192,0.0127 0.0426,0.0124 0.0829,0.0341 0.11479,0.065 0.0318,0.0309 0.0547,0.0704 0.0684,0.11256 0.0136,0.0422 0.0183,0.087 0.0165,0.13129 -0.004,0.0886 -0.0327,0.174 -0.0632,0.25726 -0.0305,0.0833 -0.0631,0.16683 -0.0744,0.25477 -0.006,0.044 -0.006,0.0889 0.002,0.13246 0.008,0.0436 0.0246,0.0859 0.0506,0.12181 0.0261,0.036 0.0614,0.065 0.10073,0.0856 0.0394,0.0207 0.0828,0.0331 0.12688,0.0388 0.0882,0.0113 0.17779,-0.004 0.26346,-0.0282 0.0857,-0.0238 0.16898,-0.0557 0.25509,-0.0779 0.0861,-0.0222 0.17657,-0.0345 0.26399,-0.0182 0.12128,0.0226 0.22726,0.099 0.30812,0.19218 0.0809,0.0932 0.13967,0.20304 0.19769,0.31191 0.058,0.10888 0.11662,0.21882 0.19716,0.31227 0.0805,0.0935 0.18606,0.17037 0.30719,0.1938 0.0871,0.0168 0.17737,0.005 0.26341,-0.0161 0.0861,-0.0214 0.16935,-0.0527 0.25487,-0.0761 0.0855,-0.0235 0.17474,-0.0392 0.26278,-0.0286 0.044,0.005 0.0874,0.0173 0.12698,0.0373 0.0396,0.02 0.0752,0.0482 0.10211,0.0835 0.0534,0.0701 0.0687,0.1634 0.0603,0.25115 -0.008,0.0877 -0.0381,0.17183 -0.067,0.25509 -0.0289,0.0832 -0.0576,0.16788 -0.0635,0.25582 -0.003,0.044 -2e-4,0.0885 0.0109,0.13118 0.0111,0.0426 0.0308,0.0833 0.0593,0.11691 0.0286,0.0336 0.0657,0.0595 0.10621,0.0771 0.0405,0.0175 0.0843,0.0268 0.12836,0.0295 0.0881,0.005 0.17577,-0.0146 0.26024,-0.0401 0.0845,-0.0255 0.16749,-0.0567 0.25395,-0.0744 0.0865,-0.0177 0.17812,-0.0213 0.26139,0.008 0.0888,0.0312 0.16269,0.0987 0.20904,0.18063 0.0464,0.0819 0.0662,0.17725 0.0651,0.27134 -0.002,0.18819 -0.0851,0.36536 -0.17457,0.53096 -0.0894,0.1656 -0.18859,0.33006 -0.22872,0.51394 -0.0201,0.0919 -0.0247,0.18811 -0.005,0.28012 0.0197,0.092 0.0648,0.17969 0.13415,0.24331 0.0646,0.0593 0.14815,0.0959 0.23434,0.11235 0.0862,0.0165 0.17516,0.0136 0.26201,0.001 0.17369,-0.0251 0.34012,-0.0883 0.5138,-0.11346 0.24548,-0.0355 0.50179,0.008 0.7216,0.12315 0.2198,0.11492 0.40199,0.30044 0.51292,0.52228 0.11092,0.22185 0.15002,0.47892 0.11008,0.72371 -0.0399,0.2448 -0.15874,0.47609 -0.33444,0.65117"
       id="path3260"
       inkscape:path-effect="#path-effect3262"
       inkscape:original-d="m 560.63466,492.73767 c 1.34687,0.33672 4.37733,-0.33672 4.04061,1.01016 -0.33671,1.34687 -5.0223,-1.99185 -4.04061,-1.01016 1.28218,1.28218 3.33054,1.4469 5.05077,2.02031 0.31943,0.10648 0.77205,-0.2381 1.01015,0 0.23809,0.23809 -0.2381,0.77205 0,1.01015 0.23809,0.2381 0.77206,-0.2381 1.01015,0 0.2381,0.2381 -0.23809,0.77206 0,1.01015 0.2381,0.2381 0.70898,-0.15058 1.01015,0 0.42592,0.21296 0.58424,0.7972 1.01016,1.01016 0.30116,0.15058 0.77205,-0.2381 1.01015,0 0.23809,0.23809 -0.2381,0.77205 0,1.01015 0.23809,0.23809 0.77206,-0.2381 1.01015,0 0.47619,0.47619 -0.47619,1.54411 0,2.0203 0.2381,0.2381 0.70898,-0.15058 1.01015,0 1.24825,0.62413 1.01016,0.97529 1.01016,2.02031"
       inkscape:connector-curvature="0" />
    <path
       style="fill:none;stroke:#000000;stroke-width:1px;stroke-linecap:butt;stroke-linejoin:miter;stroke-opacity:1"
       d="m 554.57375,505.86966 5.05076,0 c 0.16929,0 0.3384,-0.01 0.50699,-0.0251 0.16858,-0.0155 0.34357,-0.0314 0.50316,0.0251 0.1143,0.0405 0.21296,0.11729 0.29488,0.20667 0.0819,0.0894 0.14852,0.1915 0.21425,0.29338 0.0657,0.10188 0.13134,0.20452 0.21164,0.29536 0.0803,0.0908 0.17663,0.17018 0.28939,0.21474 0.17097,0.0675 0.36504,0.0496 0.54123,-0.003 0.17619,-0.0524 0.34076,-0.13728 0.5119,-0.20439 0.17114,-0.0671 0.35501,-0.11704 0.53746,-0.0945 0.0912,0.0113 0.18083,0.041 0.25726,0.0921 0.0764,0.051 0.13917,0.12397 0.17245,0.20965 0.0312,0.0802 0.0358,0.16869 0.0273,0.25432 -0.009,0.0856 -0.0297,0.16941 -0.0491,0.25327 -0.0193,0.0838 -0.0369,0.16878 -0.038,0.25483 -0.001,0.0861 0.0153,0.17407 0.0598,0.24773 0.0494,0.0817 0.1314,0.14125 0.22189,0.1717 0.0905,0.0305 0.18891,0.0331 0.283,0.0169 0.18818,-0.0324 0.35503,-0.13628 0.51893,-0.23425 0.16391,-0.098 0.33721,-0.19439 0.5276,-0.20908 0.0952,-0.007 0.19319,0.007 0.27852,0.0497 0.0853,0.0428 0.15708,0.11553 0.19037,0.20501 0.0308,0.0829 0.0277,0.17504 0.01,0.26165 -0.0179,0.0866 -0.0499,0.16956 -0.0762,0.254 -0.0263,0.0844 -0.0472,0.1722 -0.0419,0.26048 0.003,0.0441 0.012,0.0881 0.0298,0.12856 0.0178,0.0405 0.0443,0.0774 0.0785,0.10546 0.0343,0.0281 0.0758,0.0468 0.11896,0.0567 0.0432,0.01 0.0881,0.0112 0.13221,0.007 0.0882,-0.009 0.17223,-0.0407 0.25538,-0.0714 0.0832,-0.0307 0.16788,-0.0611 0.25631,-0.0673 0.0442,-0.003 0.0891,10e-6 0.13177,0.012 0.0427,0.012 0.0831,0.033 0.11552,0.0633 0.0323,0.0302 0.0561,0.069 0.0708,0.11067 0.0148,0.0417 0.0207,0.0862 0.0202,0.13043 -0.001,0.0884 -0.0276,0.17446 -0.0567,0.25797 -0.0291,0.0835 -0.0613,0.16677 -0.0744,0.25423 -0.0132,0.0874 -0.006,0.18123 0.0401,0.25686 0.0469,0.0774 0.1303,0.12825 0.21842,0.14875 0.0881,0.0205 0.18076,0.013 0.26903,-0.007 0.17654,-0.0397 0.3423,-0.12794 0.5227,-0.14196 0.1257,-0.01 0.25301,0.0178 0.36722,0.0712 0.11422,0.0534 0.21565,0.13203 0.30225,0.22365 0.1732,0.18326 0.28571,0.41446 0.38863,0.64465 0.10292,0.23019 0.20039,0.46591 0.3506,0.66844 0.0751,0.10126 0.1633,0.19361 0.26621,0.26644 0.10291,0.0728 0.22094,0.12579 0.3454,0.14594 0.16781,0.0272 0.33864,-0.006 0.50705,-0.0287 0.16841,-0.0231 0.34573,-0.0356 0.5031,0.0287 0.0996,0.0407 0.1866,0.11155 0.24659,0.20085 0.06,0.0893 0.0927,0.19665 0.0927,0.30423 0,0.10757 -0.0327,0.21493 -0.0927,0.30422 -0.06,0.0893 -0.147,0.16017 -0.24659,0.20085"
       id="path3264"
       inkscape:path-effect="#path-effect3266"
       inkscape:original-d="m 554.57375,505.86966 c 1.68358,0 3.36717,0 5.05076,0 0.33672,0 0.70898,-0.15059 1.01015,0 0.42592,0.21295 0.58424,0.79719 1.01016,1.01015 0.60233,0.30117 1.54411,-0.47619 2.0203,0 0.2381,0.23809 -0.23809,0.77206 0,1.01015 0.47619,0.47619 1.54411,-0.47619 2.02031,0 0.23809,0.2381 -0.2381,0.77206 0,1.01015 0.23809,0.2381 0.77205,-0.23809 1.01015,0 0.23809,0.2381 -0.2381,0.77206 0,1.01016 0.23809,0.23809 0.70898,-0.15059 1.01015,0 0.85184,0.42591 1.16847,1.59438 2.02031,2.0203 0.30116,0.15059 0.77205,-0.23809 1.01015,0 0.23809,0.2381 0,0.67344 0,1.01015"
       inkscape:connector-curvature="0" />
    <path
       style="fill:#000000;fill-rule:evenodd;stroke:none"
       d="m 174.75639,485.6666 c -0.73421,0.0627 -3.96154,-29.52089 -9.13303,-82.79026 0,-1e-5 0,-2e-5 0,-3e-5 1.04184,-30.81144 2.48924,-69.56193 4.30448,-115.12419 9.69493,-14.47374 19.96314,-29.79213 30.77013,-45.90404 28.0129,-18.45809 58.41922,-38.456 90.93072,-59.80411 31.74529,-4.07195 65.17689,-8.34899 100.09827,-12.8049 28.74142,0.62407 58.48554,1.28415 89.12237,1.97741 31.59419,14.88087 64.24059,30.27202 97.78815,46.10266 12.42012,14.8387 25.01461,29.89191 37.76745,45.14032 2.87016,15.44754 5.76836,31.05051 8.69194,46.79684 2.34899,26.84154 4.72697,54.09431 7.12911,81.70218 -6.15893,31.47144 -12.41982,63.409 -18.76219,95.72267 -0.1663,0.84731 -0.33256,1.69435 -0.49878,2.54113 -6.14708,4.01168 -12.28056,8.01417 -18.39927,12.00675 -3.31646,-1.4242 -6.62999,-2.84716 -9.94047,-4.26879 0.31612,-13.05748 0.63219,-26.0505 0.9493,-38.97283 -4.60842,-16.30269 -9.18361,-32.48747 -13.72439,-48.5407 8.22598,-3.67579 16.41601,-7.336 24.56822,-10.98011 -13.05297,-17.46926 -25.94668,-34.74543 -38.66073,-51.81181 -2.96414,-15.81668 -5.90341,-31.47931 -8.81778,-46.97676 -22.01108,-1.88954 -43.68789,-3.76429 -64.99886,-5.62481 -18.27414,-11.07265 -36.23883,-21.95498 -53.86751,-32.62895 -20.21065,7.46887 -39.99618,14.81746 -59.31906,22.0387 6.76885,-10.74329 13.44316,-21.33389 20.01835,-31.76431 -55.12666,18.28829 -106.35056,35.10411 -152.78804,50.13105 -13.75137,26.20672 -26.66028,50.737 -38.62092,73.39076 0,1e-5 0,3e-5 0,4e-5 0.6611,30.12392 1.37093,57.26808 2.02939,81.0664 -0.28247,25.47068 -0.16517,47.05913 0.14709,64.35328 -2.41451,-9.56919 -4.35213,-17.85836 -5.84523,-24.75179 -13.74638,-6.21486 -21.09517,-9.8677 -20.93871,-10.2218 0.15646,-0.3541 7.82569,2.62892 22.49785,8.9711 1.28694,7.00679 2.72747,15.6084 4.25629,25.75585 -1.17645,-17.23854 -2.8143,-38.69541 -4.90367,-63.9361 -1.04958,-24.13861 -2.09251,-51.78169 -3.02137,-82.57823 0,-2e-5 0,-3e-5 0,-5e-5 12.28302,-23.65784 25.70839,-49.43278 40.17098,-77.12196 48.00221,-14.31354 101.44599,-30.01584 159.3491,-46.84359 -6.69146,10.46455 -13.48904,21.09218 -20.38775,31.87529 18.86834,-9.24049 38.16576,-18.738 57.85862,-28.46892 18.38169,10.46973 37.139,21.14893 56.23917,32.02082 22.06043,2.77459 44.51685,5.61636 67.33108,8.51732 4.08093,16.14794 8.21459,32.48195 12.39542,48.98772 11.88813,18.83951 23.92268,37.94512 36.09057,57.28467 -7.93675,4.06518 -15.91031,8.15002 -23.91912,12.25341 5.48402,14.68951 11.01263,29.48969 16.58019,44.39332 -1.3577,11.86485 -2.72543,23.7921 -4.10146,35.77847 0.72677,-0.0759 1.45387,-0.15197 2.18137,-0.22819 3.95949,-2.72622 7.92783,-5.45828 11.90529,-8.19629 0.14717,-0.80718 0.29439,-1.61462 0.44166,-2.42229 5.61644,-30.80224 11.1736,-61.2377 16.66287,-91.24289 -2.37599,-26.99937 -4.71511,-53.65629 -7.01303,-79.92224 -2.51295,-14.83419 -5.00345,-29.54261 -7.4705,-44.11688 -11.79658,-14.0745 -23.45451,-27.98948 -34.96352,-41.7328 -32.25747,-15.34017 -63.67942,-30.29719 -94.14084,-44.81108 -29.74386,-0.6948 -58.65785,-1.38318 -86.64414,-2.06319 -34.07826,3.99302 -66.76976,7.81269 -97.89166,11.43876 -31.6279,20.4506 -61.3458,39.63477 -88.87644,57.37359 -10.41369,15.01175 -20.37178,29.35861 -29.83901,42.98938 -2.17364,44.58628 -4.12748,82.70374 -5.79706,113.17029 0,10e-6 0,2e-5 0,3e-5 3.91084,53.12353 5.74332,82.812 5.00911,82.87468 z"
       id="path3268"
       inkscape:path-effect="#path-effect3270;#path-effect3272"
       inkscape:original-d="m 174.75639,485.6666 -7.07107,-82.8325 5.05077,-114.14724 30.30457,-44.44671 89.90358,-58.58885 98.99495,-12.12183 87.88327,2.0203 95.96449,45.45687 36.36549,43.43656 8.08122,45.45686 7.07107,80.81221 -18.18275,95.96449 -15.15228,10.10152 -6.06092,-2.0203 2.52538,-37.37565 -15.15229,-46.46701 24.24367,-11.61676 -37.37565,-54.54824 -10.6066,-47.98224 -66.16499,-7.07107 -55.05332,-32.32488 -58.58884,25.25381 20.20305,-31.8198 -156.06857,48.48732 -39.39595,75.25636 2.52538,81.82236 2.52538,64.14469 -5.05076,-25.25382 z"
       inkscape:connector-curvature="0" />
    <path
       style="fill:none;stroke:#000000;stroke-width:1px;stroke-linecap:butt;stroke-linejoin:miter;stroke-opacity:1"
       d="m 258.57143,753.79075 0,55.71429"
       id="path3282"
       inkscape:path-effect="#path-effect3284"
       inkscape:original-d="m 258.57143,753.79075 c 0,18.57143 0,37.14286 0,55.71429"
       inkscape:connector-curvature="0" />
    <path
       style="fill:none;stroke:#000000;stroke-width:1px;stroke-linecap:butt;stroke-linejoin:miter;stroke-opacity:1"
       d="m 545.71429,752.36218 0,48.57143"
       id="path3286"
       inkscape:path-effect="#path-effect3288"
       inkscape:original-d="m 545.71429,752.36218 c 0,16.19048 0,32.38095 0,48.57143"
       inkscape:connector-curvature="0" />
    <path
       sodipodi:type="arc"
       style="opacity:0.97879998;fill:#000000;fill-opacity:1;stroke:none"
       id="path3290"
       sodipodi:cx="309.28571"
       sodipodi:cy="495.21933"
       sodipodi:rx="16.428572"
       sodipodi:ry="15.714286"
       d="m 325.71428,495.21933 a 16.428572,15.714286 0 1 1 -32.85715,0 16.428572,15.714286 0 1 1 32.85715,0 z"
       transform="matrix(1.3043478,0,0,1.1363636,-96.273288,-73.95848)" />
    <path
       sodipodi:type="arc"
       style="opacity:0.97879998;fill:#000000;fill-opacity:1;stroke:none"
       id="path3290-5"
       sodipodi:cx="309.28571"
       sodipodi:cy="495.21933"
       sodipodi:rx="16.428572"
       sodipodi:ry="15.714286"
       d="m 325.71428,495.21933 a 16.428572,15.714286 0 1 1 -32.85715,0 16.428572,15.714286 0 1 1 32.85715,0 z"
       transform="matrix(1.3043478,0,0,1.1363636,90.869585,-73.244181)" />
    <path
       style="fill:none;stroke:#000000;stroke-width:1px;stroke-linecap:butt;stroke-linejoin:miter;stroke-opacity:1"
       d="M 345.47217,677.59559 476.792,676.58544"
       id="path4086"
       inkscape:path-effect="#path-effect4088"
       inkscape:original-d="M 345.47217,677.59559 476.792,676.58544"
       inkscape:connector-curvature="0" />
  </g>
</svg>
